<svg xmlns="http://www.w3.org/2000/svg" fill="#000000" fill-rule="evenodd" stroke-linejoin="round" stroke-miterlimit="2" clip-rule="evenodd" viewBox="0 0 512 512"><path d="M256 0c141.29 0 256 114.71 256 256 0 141.29-114.71 256-256 256C114.71 512 0 397.29 0 256 0 114.71 114.71 0 256 0zm0 96c-43.45 0-48.9.18-65.97.96-17.03.78-28.66 3.49-38.84 7.44a78.43 78.43 0 00-28.34 18.45 78.43 78.43 0 00-18.45 28.34c-3.96 10.18-6.66 21.81-7.44 38.84C96.18 207.1 96 212.55 96 256s.18 48.9.96 65.97c.78 17.03 3.48 28.66 7.44 38.84a78.44 78.44 0 0018.45 28.34 78.43 78.43 0 0028.34 18.45c10.18 3.95 21.81 6.66 38.84 7.44 17.07.78 22.52.96 65.97.96s48.9-.18 65.97-.96c17.03-.78 28.66-3.49 38.84-7.44a78.44 78.44 0 0028.34-18.45 78.44 78.44 0 0018.45-28.34c3.95-10.18 6.66-21.81 7.44-38.84.78-17.07.96-22.52.96-65.97s-.18-48.9-.96-65.97c-.78-17.03-3.49-28.66-7.44-38.84a78.43 78.43 0 00-18.45-28.34 78.44 78.44 0 00-28.34-18.45c-10.18-3.96-21.81-6.66-38.84-7.44C304.9 96.18 299.45 96 256 96zm0 28.83c42.72 0 47.78.16 64.65.93 15.6.71 24.08 3.32 29.71 5.51a49.55 49.55 0 0118.4 11.97 49.55 49.55 0 0111.97 18.4c2.19 5.64 4.8 14.1 5.5 29.7.78 16.88.94 21.94.94 64.66s-.16 47.78-.93 64.65c-.71 15.6-3.32 24.08-5.51 29.71a49.54 49.54 0 01-11.97 18.4 49.54 49.54 0 01-18.4 11.97c-5.64 2.19-14.1 4.8-29.7 5.5-16.88.78-21.94.94-64.66.94-42.73 0-47.78-.16-64.65-.93-15.6-.71-24.07-3.32-29.71-5.51a49.55 49.55 0 01-18.4-11.97 49.55 49.55 0 01-11.97-18.4c-2.19-5.64-4.8-14.1-5.5-29.7-.78-16.88-.94-21.94-.94-64.66s.16-47.78.93-64.65c.71-15.6 3.32-24.07 5.51-29.71a49.56 49.56 0 0111.97-18.4 49.57 49.57 0 0118.4-11.97c5.64-2.19 14.1-4.8 29.7-5.5 16.88-.78 21.94-.94 64.66-.94zm0 49a82.16 82.16 0 100 164.33 82.16 82.16 0 000-164.32zm0 135.5a53.33 53.33 0 110-106.66 53.33 53.33 0 010 106.66zM360.6 170.6a19.2 19.2 0 11-38.4 0 19.2 19.2 0 0138.4 0z"/></svg>