<?xml version="1.0" encoding="UTF-8"?>
<svg width="1051px" height="1051px" viewBox="0 0 1051 1051" version="1.1" xmlns="http://www.w3.org/2000/svg" xmlns:xlink="http://www.w3.org/1999/xlink">
    <title>Group 16</title>
    <g id="Page-1" stroke="none" stroke-width="1" fill="none" fill-rule="evenodd">
        <g id="Group-16">
            <g id="Group-15">
                <g id="Group-3">
                    <circle id="Oval" stroke="#FFFFFF" stroke-width="20" fill="#4C825F" cx="525.5" cy="525.5" r="515.5"></circle>
                    <g id="Group" transform="translate(82.000000, 648.000000)" fill="#FFFFFF">
                        <rect id="Rectangle" x="0" y="0" width="887" height="21"></rect>
                    </g>
                </g>
                <g id="noun_timber_1590166" transform="translate(368.000000, 96.000000)" fill="#FFFFFF" fill-rule="nonzero">
                    <path d="M312.941866,142.728403 C301.039029,50.6910313 245.280882,0 155.947444,0 C81.6185156,0 0,78.1769509 0,149.378012 C0,237.708831 70.023229,306.9 159.409016,306.9 C204.998385,306.9 248.271314,287.479749 278.123288,253.611771 C305.770063,222.256158 318.130953,182.867504 312.941866,142.728403 Z M288.292066,97.0164214 L277.31188,103.267967 C258.728012,53.2556007 220.133768,27.048703 163.767064,27.048703 C136.061396,27.048703 106.916133,37.6397874 82.8814334,55.7483883 L74.243861,44.6744078 C99.03762,25.5412843 128.287581,13.0512439 155.947444,13.0512439 C222.096852,13.0512439 267.058034,41.927121 288.292066,97.0164214 Z M244.705044,125.605171 C245.320144,126.662322 246.426015,127.249628 247.55806,127.249628 C248.114267,127.249628 248.670475,127.11259 249.180877,126.818937 L252.184396,125.109224 C254.160568,132.04596 255.737579,139.478643 256.84345,147.511684 C260.285392,172.6027 252.629362,197.341333 235.288781,217.166173 C216.17488,239.013955 188.384145,251.543149 159.049117,251.543149 C139.379009,251.543149 121.46259,246.126883 106.399187,236.743038 L116.777362,226.393402 C128.745634,233.049536 142.716253,236.847448 157.94979,236.847448 C204.756271,236.847448 242.748503,194.463534 242.748503,166.801422 C242.748503,108.371004 210.606264,70.613755 160.855155,70.613755 C141.132698,70.613755 123.006883,77.4199787 108.584755,88.7223559 L99.1030561,76.5585966 C116.541791,64.1860174 137.782367,57.4254731 158.322776,57.4254731 C159.788546,57.4254731 161.247772,57.4581012 162.713542,57.5233574 C208.028079,59.4875696 236.852705,79.5995365 250.208224,118.714114 L245.9287,121.154697 C244.364776,122.048707 243.828199,124.039022 244.705044,125.605171 Z M125.545806,213.035454 C124.269801,211.762958 122.195475,211.762958 120.91947,213.035454 L115.782732,218.158067 C95.5040676,204.976311 82.6131452,182.175788 82.6131452,155.17929 C82.6131452,132.652843 92.2911525,112.384261 107.649018,98.1257772 L114.107566,106.413317 C114.748841,107.242071 115.717296,107.672762 116.685751,107.672762 C117.385918,107.672762 118.092628,107.450891 118.694641,106.987572 C120.121149,105.884742 120.37635,103.835696 119.263935,102.406585 L112.602535,93.8710717 C125.912249,83.4235509 142.650817,77.139377 160.861699,77.139377 C207.340999,77.139377 236.211431,111.496777 236.211431,166.801422 C236.211431,191.311659 200.39168,230.321826 157.956334,230.321826 C144.594271,230.321826 132.259556,227.189528 121.600006,221.590544 L125.545806,217.649069 C126.821811,216.376572 126.821811,214.314476 125.545806,213.035454 Z M103.618151,92.9705358 C86.7290793,108.442785 76.0629861,130.564644 76.0629861,155.17929 C76.0629861,184.042116 89.6082701,208.48057 111.01898,222.902194 L100.856745,233.036485 C76.030268,215.025769 60.3648526,185.340714 60.3648526,150.356855 C60.3648526,120.528237 74.1522504,96.6770891 93.9532308,80.5783798 L103.618151,92.9705358 Z M53.8277808,150.363381 C53.8277808,187.207042 70.1868194,218.503925 96.1584292,237.741459 L81.9587836,251.902058 C53.2912043,230.935235 36.0226031,197.406589 36.0226031,156.614927 C36.0226031,119.960508 55.2477453,87.6652052 82.0961996,65.367155 L89.9616254,75.4492409 C68.6752443,92.6834085 53.8277808,118.289949 53.8277808,150.363381 Z M101.602717,241.526319 C117.929038,252.019519 137.507535,258.068771 159.042574,258.068771 C190.268707,258.068771 219.858936,244.723874 240.216124,221.453506 C258.819622,200.186504 267.025316,173.607646 263.315086,146.624199 C262.084886,137.677572 260.285392,129.448762 258.021301,121.774631 L273.706347,112.834529 C276.840739,122.890512 279.32077,133.788301 280.956673,145.736715 C285.262372,177.053175 275.715237,207.912841 254.082045,232.651474 C230.256741,259.88942 195.608297,275.505233 159.042574,275.505233 C131.43506,275.505233 107.033918,268.366202 87.36381,255.706496 L101.602717,241.526319 Z M256.071304,115.379522 C241.753873,74.2354752 211.077404,53.0924601 163.001461,51.0042611 C161.444081,50.9390049 159.880157,50.8998512 158.32932,50.8998512 C136.395121,50.8998512 113.708406,58.1498171 95.0983635,71.4164065 L87.2067632,61.2951669 C110.187941,43.8913332 137.900152,33.5743249 163.767064,33.5743249 C218.170683,33.5743249 254.311071,58.0910865 271.658196,106.485099 L256.071304,115.379522 Z M268.294777,244.991425 C240.909747,276.040334 201.235806,293.84223 159.409016,293.84223 C77.358622,293.84223 13.0872309,230.380557 13.0872309,149.371486 C13.0872309,113.898205 36.6965955,75.6776377 69.1332973,48.7529215 L77.7446953,59.7942739 C49.4828201,83.1168467 29.472444,117.219747 29.472444,156.614927 C29.472444,230.458865 82.7636483,282.03738 159.055661,282.03738 C197.519033,282.03738 233.960427,265.599339 259.029018,236.938807 C281.925129,210.764538 292.021927,178.071172 287.461027,144.855756 C285.700795,132.052486 282.972107,120.34552 279.458185,109.565192 L290.549614,103.235339 C294.816051,115.738431 298.015879,129.409609 299.952789,144.398962 C304.677279,180.766253 293.422261,216.494034 268.294777,244.991425 Z M212.13747,178.501863 L213.367669,179.121797 C213.85844,179.337142 214.349212,179.454603 214.839983,179.454603 C216.044008,179.454603 217.189141,178.78899 217.764979,177.660057 C218.569844,176.041703 217.915482,174.084017 216.292665,173.274839 L214.388473,172.322099 C215.743002,167.754163 216.547866,162.996985 216.547866,158.089717 C216.547866,112.854106 186.270558,96.7488709 157.943246,96.7488709 C125.630873,96.7488709 99.3451699,121.65717 99.3451699,152.275388 C99.3451699,184.949177 126.049665,213.609709 156.48402,213.609709 C181.29741,213.609709 203.133455,198.835701 212.13747,178.501863 Z M105.901873,152.275388 C105.901873,125.252788 129.249493,103.274493 157.956334,103.274493 C190.550082,103.274493 210.010795,123.764946 210.010795,158.089717 C210.010795,161.952885 209.434956,165.724695 208.466501,169.365992 L195.019372,162.664178 C195.739169,159.805956 196.171048,156.817221 196.171048,153.737127 C196.171048,133.520751 179.674593,117.076183 159.41556,117.076183 C139.149983,117.076183 122.660072,133.520751 122.660072,153.737127 C122.660072,173.953504 139.149983,190.391546 159.41556,190.391546 C174.263023,190.391546 187.055792,181.549328 192.846891,168.883096 L206.294021,175.58491 C198.408964,193.804446 178.81738,207.097138 156.510195,207.097138 C129.543955,207.084087 105.901873,181.484072 105.901873,152.275388 Z M174.105977,159.53188 L186.970725,165.94004 C182.259321,176.465869 171.697926,183.846347 159.409016,183.846347 C142.748971,183.846347 129.197144,170.33831 129.197144,153.71755 C129.197144,137.103317 142.748971,123.582228 159.409016,123.582228 C176.069061,123.582228 189.620889,137.096791 189.620889,153.71755 C189.620889,155.76007 189.40495,157.737334 189.018876,159.655866 L177.04406,153.678397 C175.421243,152.888797 173.458159,153.528307 172.64675,155.146662 C171.848429,156.765016 172.496247,158.729228 174.105977,159.53188 Z" id="Shape"></path>
                </g>
                <text id="Bespoke-furniture-&amp;" font-family="AvenirNext-Regular, Avenir Next" font-size="73" font-weight="normal" fill="#FFFFFF">
                    <tspan x="229.3645" y="793">Bespoke furniture</tspan>
                    <tspan x="332.5135" y="893">&amp; carpentry</tspan>
                </text>
            </g>
            <g id="Group-14" transform="translate(70.000000, 446.000000)" fill="#FFFFFF" font-size="150">
                <text id="RS" font-family="AvenirNext-Regular, Avenir Next" font-weight="normal" letter-spacing="14">
                    <tspan x="0" y="150">RS</tspan>
                </text>
                <text id="JOINERS" font-family="AvenirNext-Bold, Avenir Next" font-weight="bold" letter-spacing="2">
                    <tspan x="238" y="150">JOINERS</tspan>
                </text>
            </g>
        </g>
    </g>
</svg>