<?xml version="1.0" encoding="UTF-8"?>
<svg width="253px" height="58px" viewBox="0 0 253 58" version="1.1" xmlns="http://www.w3.org/2000/svg" xmlns:xlink="http://www.w3.org/1999/xlink">
    <title>Group 6</title>
    <g id="Page-1" stroke="none" stroke-width="1" fill="none" fill-rule="evenodd">
        <g id="Home-page-Copy" transform="translate(-21.000000, -20.000000)" fill="#000000">
            <g id="Group-6" transform="translate(21.000000, 20.000000)">
                <g id="Group" transform="translate(72.000000, 9.000000)">
                    <rect id="Rectangle" x="2.6" y="36.8" width="176" height="4.2"></rect>
                    <g id="Group-2" font-size="30">
                        <text id="RS" font-family="AvenirNext-Regular, Avenir Next" font-weight="normal" letter-spacing="2.8">
                            <tspan x="0" y="30">RS</tspan>
                        </text>
                        <text id="JOINERS" font-family="AvenirNext-Bold, Avenir Next" font-weight="bold" letter-spacing="0.4">
                            <tspan x="47" y="30">JOINERS</tspan>
                        </text>
                    </g>
                </g>
                <g id="noun_timber_1590166" fill-rule="nonzero">
                    <path d="M59.1112413,26.9598095 C56.8629277,9.57497257 46.3308333,0 29.4567394,0 C15.4168307,0 0,14.7667574 0,28.2158467 C0,44.9005569 13.2266099,57.97 30.110592,57.97 C38.7219172,57.97 46.8956927,54.3017304 52.5343988,47.9044457 C57.7565675,41.9817187 60.0914022,34.5416396 59.1112413,26.9598095 Z M54.4551681,18.325324 L52.3811328,19.5061716 C48.8708467,10.0593912 41.5808228,5.10919945 30.9337788,5.10919945 C25.700486,5.10919945 20.1952696,7.10973761 15.6553819,10.5302511 L14.0238404,8.43849926 C18.707106,4.82446481 24.2320987,2.46523496 29.4567394,2.46523496 C41.9516277,2.46523496 50.4442953,7.9195673 54.4551681,18.325324 Z M46.2220638,23.7254212 C46.3382493,23.9251053 46.5471361,24.0360408 46.7609669,24.0360408 C46.8660283,24.0360408 46.9710897,24.0101559 47.0674989,23.9546881 L47.6348304,23.6317423 C48.0081073,24.9420147 48.3059872,26.345966 48.514874,27.8633181 C49.1650185,32.6027323 47.7188795,37.2755852 44.4434364,41.0202771 C40.833033,45.1470804 35.5836719,47.5137059 30.0426111,47.5137059 C26.3271462,47.5137059 22.9429337,46.4906334 20.0976243,44.7181295 L22.0579461,42.7631982 C24.3186198,44.020468 26.9575145,44.7378514 29.8349603,44.7378514 C38.6761846,44.7378514 45.852495,36.7320009 45.852495,31.5069354 C45.852495,20.4700785 39.7811831,13.3381537 30.3837515,13.3381537 C26.6583986,13.3381537 23.2346335,14.6237738 20.5104537,16.7586672 L18.7194662,14.4610683 C22.0134495,12.1240255 26.0255582,10.8470338 29.9054133,10.8470338 C30.1822809,10.8470338 30.4579125,10.8531969 30.7347802,10.8655231 C39.2941927,11.2365409 44.7388443,15.035468 47.2615535,22.4237772 L46.4531989,22.8847761 C46.157791,23.0536447 46.0564376,23.429593 46.2220638,23.7254212 Z M23.7142078,40.2400302 C23.4731847,39.9996698 23.0813675,39.9996698 22.8403444,40.2400302 L21.8700716,41.2076349 C18.0396572,38.7177476 15.6047052,34.4109821 15.6047052,29.3116436 C15.6047052,25.0566481 17.4327732,21.2281382 20.3337034,18.534869 L21.5536514,20.1002932 C21.674781,20.2568356 21.8577114,20.3381884 22.0406418,20.3381884 C22.1728956,20.3381884 22.3063853,20.2962794 22.4200988,20.2087636 C22.6895504,20.0004512 22.737755,19.6134093 22.5276322,19.3434661 L21.2693677,17.7312024 C23.7834248,15.7577818 26.9451543,14.5707712 30.3849876,14.5707712 C39.164411,14.5707712 44.6177147,21.0605022 44.6177147,31.5069354 C44.6177147,36.1366466 37.8517618,43.5052339 29.8361963,43.5052339 C27.3122512,43.5052339 24.9823605,42.9135775 22.96889,41.8559917 L23.7142078,41.1114908 C23.955231,40.8711303 23.955231,40.4816232 23.7142078,40.2400302 Z M19.5723174,17.5611012 C16.3821594,20.4836373 14.3674529,24.6622105 14.3674529,29.3116436 C14.3674529,34.7635107 16.9260066,39.3796632 20.9702518,42.1037478 L19.0507185,44.0180028 C14.3612729,40.6159785 11.4022499,35.0088016 11.4022499,28.4007393 C11.4022499,22.7664448 14.0065362,18.2612279 17.7467214,15.2203606 L19.5723174,17.5611012 Z M10.1674697,28.4019719 C10.1674697,35.3613302 13.2575103,41.2729636 18.1632588,44.90672 L15.4811036,47.5814999 C10.0661164,43.6210999 6.80426948,37.2879113 6.80426948,29.5828195 C6.80426948,22.6592071 10.4356852,16.5589832 15.5070599,12.3471293 L16.9927515,14.2515233 C12.9719906,17.506866 10.1674697,22.343657 10.1674697,28.4019719 Z M19.1916244,45.6216381 C22.2754849,47.603687 25.9736456,48.7463234 30.041375,48.7463234 C35.9396446,48.7463234 41.5289101,46.2256207 45.3741567,41.8301067 C48.8881509,37.8130064 50.4381153,32.7925554 49.737294,27.6956821 C49.504923,26.0057636 49.1650185,24.4514329 48.7373569,23.0018748 L51.7000879,21.3131888 C52.2921396,23.2126523 52.7605898,25.2711235 53.0695939,27.5280461 C53.8828926,33.4433774 52.0795448,39.2724255 47.9932751,43.9452783 C43.4929399,49.0902237 36.9482339,52.0398773 30.041375,52.0398773 C24.8266225,52.0398773 20.2175179,50.6913938 16.502053,48.3001159 L19.1916244,45.6216381 Z M48.3690241,21.7939096 C45.6646205,14.0222564 39.8701763,10.0285758 30.7891649,9.63413821 C30.494993,9.62181203 30.1995851,9.61441633 29.9066493,9.61441633 C25.7635228,9.61441633 21.4782544,10.9838543 17.9630242,13.4897657 L16.4723886,11.577976 C20.8132777,8.29058516 26.0478065,6.34181693 30.9337788,6.34181693 C41.2100179,6.34181693 48.0365357,10.9727608 51.3132148,20.113852 L48.3690241,21.7939096 Z M50.6779024,46.276158 C45.5051744,52.1409519 38.0112078,55.5035324 30.110592,55.5035324 C14.6121842,55.5035324 2.47203251,43.5163275 2.47203251,28.2146141 C2.47203251,21.5141055 6.93157915,14.2946649 13.0585117,9.20888518 L14.6851091,11.294474 C9.34675491,15.6998488 5.56701721,22.1415078 5.56701721,29.5828195 C5.56701721,43.5311189 15.6331336,53.2737274 30.0438471,53.2737274 C37.3091506,53.2737274 44.1925251,50.168764 48.9277034,44.755108 C53.2525243,39.8110793 55.1596974,33.6356657 54.298194,27.3616428 C53.9657057,24.9432473 53.4502869,22.7319315 52.7865461,20.6956475 L54.8815937,19.5000085 C55.6874763,21.8617036 56.2918882,24.4440372 56.6577491,27.2753596 C57.5501528,34.1447368 55.4242048,40.8933175 50.6779024,46.276158 Z M40.0704109,33.7170185 L40.302782,33.8341172 C40.3954832,33.8747935 40.4881844,33.8969807 40.5808856,33.8969807 C40.8083126,33.8969807 41.0246155,33.7712537 41.1333849,33.5580108 C41.2854149,33.2523217 41.1618133,32.8825365 40.8552812,32.7296919 L40.4956005,32.5497297 C40.7514559,31.6868975 40.9034859,30.7883194 40.9034859,29.861391 C40.9034859,21.3168867 35.1844387,18.2747867 29.8337243,18.2747867 C23.7302761,18.2747867 18.7651988,22.9796876 18.7651988,28.7631289 C18.7651988,34.9348446 23.8093811,40.3485005 29.5580927,40.3485005 C34.2450663,40.3485005 38.3696526,37.5578546 40.0704109,33.7170185 Z M20.003687,28.7631289 C20.003687,23.6588599 24.413793,19.5074042 29.8361963,19.5074042 C35.9927933,19.5074042 39.6687056,23.3778231 39.6687056,29.861391 C39.6687056,30.5911006 39.5599362,31.3035535 39.3770058,31.991354 L36.8369924,30.7254559 C36.9729542,30.1855694 37.0545313,29.6210306 37.0545313,29.0392352 C37.0545313,25.2205862 33.9385343,22.1143902 30.111828,22.1143902 C26.2838856,22.1143902 23.1691247,25.2205862 23.1691247,29.0392352 C23.1691247,32.8578841 26.2838856,35.9628475 30.111828,35.9628475 C32.9163489,35.9628475 35.3327606,34.2926509 36.426635,31.9001403 L38.9666484,33.1660385 C37.4772488,36.6075065 33.7766162,39.1183483 29.5630368,39.1183483 C24.4694138,39.1158831 20.003687,34.2803247 20.003687,28.7631289 Z M32.8866845,30.1337995 L35.3166924,31.3442299 C34.4267607,33.3324418 32.4318305,34.7265322 30.110592,34.7265322 C26.9636946,34.7265322 24.4039049,32.175014 24.4039049,29.0355373 C24.4039049,25.8972932 26.9636946,23.3433098 30.110592,23.3433098 C33.2574893,23.3433098 35.817279,25.8960606 35.817279,29.0355373 C35.817279,29.4213466 35.7764905,29.7948297 35.7035655,30.1572192 L33.4416558,29.0281416 C33.1351237,28.8789949 32.7643189,28.9997914 32.6110528,29.3054805 C32.4602589,29.6111697 32.5826245,29.9821875 32.8866845,30.1337995 Z" id="Shape"></path>
                </g>
            </g>
        </g>
    </g>
</svg>