<?xml version="1.0" encoding="UTF-8"?>
<svg width="1051px" height="1051px" viewBox="0 0 1051 1051" version="1.1" xmlns="http://www.w3.org/2000/svg" xmlns:xlink="http://www.w3.org/1999/xlink">
    <title>logo-stack</title>
    <defs>
        <path d="M241.5565,783 C244.525167,783 247.201833,782.659333 249.5865,781.978 C251.971167,781.296667 253.990833,780.3355 255.6455,779.0945 C257.300167,777.8535 258.577667,776.344833 259.478,774.5685 C260.378333,772.792167 260.8285,770.833333 260.8285,768.692 C260.8285,764.896 259.721333,761.890833 257.507,759.6765 C255.292667,757.462167 252.5065,756.160333 249.1485,755.771 L249.1485,755.771 L249.1485,755.625 C251.9225,754.992333 254.136833,753.666167 255.7915,751.6465 C257.446167,749.626833 258.2735,747.254333 258.2735,744.529 C258.2735,741.949667 257.774667,739.808333 256.777,738.105 C255.779333,736.401667 254.489667,735.051167 252.908,734.0535 C251.326333,733.055833 249.537833,732.350167 247.5425,731.9365 C245.547167,731.522833 243.576167,731.316 241.6295,731.316 L241.6295,731.316 L226.2265,731.316 L226.2265,783 L241.5565,783 Z M242.0675,753.946 L231.4825,753.946 L231.4825,735.842 L240.6075,735.842 C242.310833,735.842 243.916833,736.000167 245.4255,736.3165 C246.934167,736.632833 248.248167,737.156 249.3675,737.886 C250.486833,738.616 251.375,739.552833 252.032,740.6965 C252.689,741.840167 253.0175,743.239333 253.0175,744.894 C253.0175,746.597333 252.689,748.033 252.032,749.201 C251.375,750.369 250.511167,751.305833 249.4405,752.0115 C248.369833,752.717167 247.189667,753.216 245.9,753.508 C244.610333,753.8 243.332833,753.946 242.0675,753.946 L242.0675,753.946 Z M241.2645,778.474 L231.4825,778.474 L231.4825,758.253 L242.2135,758.253 C246.4475,758.253 249.720333,759.0925 252.032,760.7715 C254.343667,762.4505 255.4995,764.993333 255.4995,768.4 C255.4995,770.200667 255.110167,771.745833 254.3315,773.0355 C253.552833,774.325167 252.518667,775.3715 251.229,776.1745 C249.939333,776.9775 248.430667,777.5615 246.703,777.9265 C244.975333,778.2915 243.1625,778.474 241.2645,778.474 L241.2645,778.474 Z M287.5465,783.876 C290.369167,783.876 293.009333,783.316333 295.467,782.197 C297.924667,781.077667 300.1755,779.228333 302.2195,776.649 L302.2195,776.649 L298.4965,773.729 C297.523167,775.286333 296.099667,776.661167 294.226,777.8535 C292.352333,779.045833 290.125833,779.642 287.5465,779.642 C285.7945,779.642 284.164167,779.3135 282.6555,778.6565 C281.146833,777.9995 279.832833,777.111333 278.7135,775.992 C277.594167,774.872667 276.718167,773.558667 276.0855,772.05 C275.452833,770.541333 275.112167,768.935333 275.0635,767.232 L275.0635,767.232 L303.3875,767.232 C303.436167,766.794 303.4605,766.380333 303.4605,765.991 L303.4605,765.991 L303.4605,764.896 C303.4605,762.56 303.107667,760.37 302.402,758.326 C301.696333,756.282 300.662167,754.4935 299.2995,752.9605 C297.936833,751.4275 296.2335,750.210833 294.1895,749.3105 C292.1455,748.410167 289.785167,747.96 287.1085,747.96 C284.675167,747.96 282.412167,748.410167 280.3195,749.3105 C278.226833,750.210833 276.401833,751.464 274.8445,753.07 C273.287167,754.676 272.0705,756.574 271.1945,758.764 C270.3185,760.954 269.8805,763.338667 269.8805,765.918 C269.8805,768.497333 270.330667,770.882 271.231,773.072 C272.131333,775.262 273.360167,777.16 274.9175,778.766 C276.474833,780.372 278.336333,781.625167 280.502,782.5255 C282.667667,783.425833 285.015833,783.876 287.5465,783.876 Z M298.4235,763.29 L275.1365,763.29 C275.233833,761.83 275.598833,760.430833 276.2315,759.0925 C276.864167,757.754167 277.715833,756.561833 278.7865,755.5155 C279.857167,754.469167 281.098167,753.641833 282.5095,753.0335 C283.920833,752.425167 285.453833,752.121 287.1085,752.121 C290.661167,752.121 293.398667,753.1795 295.321,755.2965 C297.243333,757.4135 298.2775,760.078 298.4235,763.29 L298.4235,763.29 Z M323.8275,783.876 C325.384833,783.876 326.93,783.6935 328.463,783.3285 C329.996,782.9635 331.370833,782.355167 332.5875,781.5035 C333.804167,780.651833 334.789667,779.556833 335.544,778.2185 C336.298333,776.880167 336.6755,775.237667 336.6755,773.291 C336.6755,770.614333 335.714333,768.485167 333.792,766.9035 C331.869667,765.321833 328.888833,764.117333 324.8495,763.29 C322.026833,762.706 319.9585,761.988167 318.6445,761.1365 C317.3305,760.284833 316.6735,759.056 316.6735,757.45 C316.6735,756.525333 316.880333,755.722333 317.294,755.041 C317.707667,754.359667 318.255167,753.8 318.9365,753.362 C319.617833,752.924 320.3965,752.607667 321.2725,752.413 C322.1485,752.218333 323.0245,752.121 323.9005,752.121 C325.7985,752.121 327.489667,752.571167 328.974,753.4715 C330.458333,754.371833 331.5655,755.527667 332.2955,756.939 L332.2955,756.939 L336.0915,754.092 C334.972167,752.145333 333.293167,750.636667 331.0545,749.566 C328.815833,748.495333 326.504167,747.96 324.1195,747.96 C322.562167,747.96 321.0535,748.154667 319.5935,748.544 C318.1335,748.933333 316.831667,749.5295 315.688,750.3325 C314.544333,751.1355 313.631833,752.1575 312.9505,753.3985 C312.269167,754.6395 311.9285,756.136 311.9285,757.888 C311.9285,759.494 312.244833,760.832333 312.8775,761.903 C313.510167,762.973667 314.313167,763.861833 315.2865,764.5675 C316.259833,765.273167 317.318333,765.8085 318.462,766.1735 C319.605667,766.5385 320.6885,766.842667 321.7105,767.086 C324.971167,767.864667 327.465333,768.704167 329.193,769.6045 C330.920667,770.504833 331.7845,771.855333 331.7845,773.656 C331.7845,774.775333 331.5655,775.712167 331.1275,776.4665 C330.6895,777.220833 330.1055,777.841333 329.3755,778.328 C328.6455,778.814667 327.793833,779.155333 326.8205,779.35 C325.847167,779.544667 324.825167,779.642 323.7545,779.642 C321.7105,779.642 319.836833,779.131 318.1335,778.109 C316.430167,777.087 315.1405,775.821667 314.2645,774.313 L314.2645,774.313 L310.3225,777.233 C311.879833,779.520333 313.875167,781.199333 316.3085,782.27 C318.741833,783.340667 321.248167,783.876 323.8275,783.876 Z M351.4945,800.52 L351.4945,777.233 L351.7135,777.233 C353.124833,779.374333 355.010667,781.016833 357.371,782.1605 C359.731333,783.304167 362.128167,783.876 364.5615,783.876 C367.238167,783.876 369.659333,783.413667 371.825,782.489 C373.990667,781.564333 375.84,780.299 377.373,778.693 C378.906,777.087 380.098333,775.189 380.95,772.999 C381.801667,770.809 382.2275,768.448667 382.2275,765.918 C382.2275,763.387333 381.801667,761.027 380.95,758.837 C380.098333,756.647 378.906,754.749 377.373,753.143 C375.84,751.537 373.990667,750.271667 371.825,749.347 C369.659333,748.422333 367.238167,747.96 364.5615,747.96 C362.128167,747.96 359.731333,748.531833 357.371,749.6755 C355.010667,750.819167 353.124833,752.510333 351.7135,754.749 L351.7135,754.749 L351.4945,754.749 L351.4945,748.836 L346.5305,748.836 L346.5305,800.52 L351.4945,800.52 Z M364.0505,779.642 C362.1525,779.642 360.4005,779.289167 358.7945,778.5835 C357.1885,777.877833 355.8015,776.916667 354.6335,775.7 C353.4655,774.483333 352.553,773.0355 351.896,771.3565 C351.239,769.6775 350.9105,767.864667 350.9105,765.918 C350.9105,763.971333 351.239,762.1585 351.896,760.4795 C352.553,758.8005 353.4655,757.3405 354.6335,756.0995 C355.8015,754.8585 357.1885,753.885167 358.7945,753.1795 C360.4005,752.473833 362.1525,752.121 364.0505,752.121 C366.0945,752.121 367.9195,752.486 369.5255,753.216 C371.1315,753.946 372.482,754.9315 373.577,756.1725 C374.672,757.4135 375.5115,758.8735 376.0955,760.5525 C376.6795,762.2315 376.9715,764.02 376.9715,765.918 C376.9715,767.816 376.6795,769.6045 376.0955,771.2835 C375.5115,772.9625 374.672,774.4225 373.577,775.6635 C372.482,776.9045 371.1315,777.877833 369.5255,778.5835 C367.9195,779.289167 366.0945,779.642 364.0505,779.642 Z M408.5805,783.876 C411.257167,783.876 413.714833,783.425833 415.9535,782.5255 C418.192167,781.625167 420.1145,780.372 421.7205,778.766 C423.3265,777.16 424.579667,775.262 425.48,773.072 C426.380333,770.882 426.8305,768.497333 426.8305,765.918 C426.8305,763.338667 426.380333,760.954 425.48,758.764 C424.579667,756.574 423.3265,754.676 421.7205,753.07 C420.1145,751.464 418.192167,750.210833 415.9535,749.3105 C413.714833,748.410167 411.257167,747.96 408.5805,747.96 C405.9525,747.96 403.519167,748.410167 401.2805,749.3105 C399.041833,750.210833 397.1195,751.464 395.5135,753.07 C393.9075,754.676 392.654333,756.574 391.754,758.764 C390.853667,760.954 390.4035,763.338667 390.4035,765.918 C390.4035,768.497333 390.853667,770.882 391.754,773.072 C392.654333,775.262 393.9075,777.16 395.5135,778.766 C397.1195,780.372 399.041833,781.625167 401.2805,782.5255 C403.519167,783.425833 405.9525,783.876 408.5805,783.876 Z M408.5805,779.642 C406.585167,779.642 404.796667,779.289167 403.215,778.5835 C401.633333,777.877833 400.282833,776.9045 399.1635,775.6635 C398.044167,774.4225 397.180333,772.9625 396.572,771.2835 C395.963667,769.6045 395.6595,767.816 395.6595,765.918 C395.6595,764.02 395.963667,762.2315 396.572,760.5525 C397.180333,758.8735 398.044167,757.4135 399.1635,756.1725 C400.282833,754.9315 401.633333,753.946 403.215,753.216 C404.796667,752.486 406.585167,752.121 408.5805,752.121 C410.575833,752.121 412.3765,752.486 413.9825,753.216 C415.5885,753.946 416.951167,754.9315 418.0705,756.1725 C419.189833,757.4135 420.053667,758.8735 420.662,760.5525 C421.270333,762.2315 421.5745,764.02 421.5745,765.918 C421.5745,767.816 421.270333,769.6045 420.662,771.2835 C420.053667,772.9625 419.189833,774.4225 418.0705,775.6635 C416.951167,776.9045 415.5885,777.877833 413.9825,778.5835 C412.3765,779.289167 410.575833,779.642 408.5805,779.642 Z M442.5985,783 L442.5985,765.042 L442.8175,765.042 L460.1915,783 L467.4915,783 L448.5115,764.458 L465.7395,748.836 L458.5855,748.836 L442.8175,764.239 L442.5985,764.239 L442.5985,727.812 L437.6345,727.812 L437.6345,783 L442.5985,783 Z M488.5885,783.876 C491.411167,783.876 494.051333,783.316333 496.509,782.197 C498.966667,781.077667 501.2175,779.228333 503.2615,776.649 L503.2615,776.649 L499.5385,773.729 C498.565167,775.286333 497.141667,776.661167 495.268,777.8535 C493.394333,779.045833 491.167833,779.642 488.5885,779.642 C486.8365,779.642 485.206167,779.3135 483.6975,778.6565 C482.188833,777.9995 480.874833,777.111333 479.7555,775.992 C478.636167,774.872667 477.760167,773.558667 477.1275,772.05 C476.494833,770.541333 476.154167,768.935333 476.1055,767.232 L476.1055,767.232 L504.4295,767.232 C504.478167,766.794 504.5025,766.380333 504.5025,765.991 L504.5025,765.991 L504.5025,764.896 C504.5025,762.56 504.149667,760.37 503.444,758.326 C502.738333,756.282 501.704167,754.4935 500.3415,752.9605 C498.978833,751.4275 497.2755,750.210833 495.2315,749.3105 C493.1875,748.410167 490.827167,747.96 488.1505,747.96 C485.717167,747.96 483.454167,748.410167 481.3615,749.3105 C479.268833,750.210833 477.443833,751.464 475.8865,753.07 C474.329167,754.676 473.1125,756.574 472.2365,758.764 C471.3605,760.954 470.9225,763.338667 470.9225,765.918 C470.9225,768.497333 471.372667,770.882 472.273,773.072 C473.173333,775.262 474.402167,777.16 475.9595,778.766 C477.516833,780.372 479.378333,781.625167 481.544,782.5255 C483.709667,783.425833 486.057833,783.876 488.5885,783.876 Z M499.4655,763.29 L476.1785,763.29 C476.275833,761.83 476.640833,760.430833 477.2735,759.0925 C477.906167,757.754167 478.757833,756.561833 479.8285,755.5155 C480.899167,754.469167 482.140167,753.641833 483.5515,753.0335 C484.962833,752.425167 486.495833,752.121 488.1505,752.121 C491.703167,752.121 494.440667,753.1795 496.363,755.2965 C498.285333,757.4135 499.3195,760.078 499.4655,763.29 L499.4655,763.29 Z M539.8345,783 L539.8345,752.997 L547.8645,752.997 L547.8645,748.836 L539.8345,748.836 L539.8345,740.076 C539.8345,738.859333 539.919667,737.715667 540.09,736.645 C540.260333,735.574333 540.576667,734.6375 541.039,733.8345 C541.501333,733.0315 542.158333,732.411 543.01,731.973 C543.861667,731.535 544.9445,731.316 546.2585,731.316 C546.939833,731.316 547.548167,731.364667 548.0835,731.462 C548.618833,731.559333 549.154167,731.681 549.6895,731.827 L549.6895,731.827 L550.5655,727.447 C549.932833,727.252333 549.2515,727.1185 548.5215,727.0455 C547.7915,726.9725 547.110167,726.936 546.4775,726.936 C542.5355,726.936 539.6155,728.055333 537.7175,730.294 C535.8195,732.532667 534.8705,735.598667 534.8705,739.492 L534.8705,739.492 L534.8705,748.836 L527.7165,748.836 L527.7165,752.997 L534.8705,752.997 L534.8705,783 L539.8345,783 Z M567.6475,783.876 C570.080833,783.876 572.3925,783.2555 574.5825,782.0145 C576.7725,780.7735 578.354167,779.155333 579.3275,777.16 L579.3275,777.16 L579.4735,777.16 C579.4735,777.89 579.497833,778.814667 579.5465,779.934 C579.595167,781.053333 579.668167,782.075333 579.7655,783 L579.7655,783 L584.5105,783 C584.413167,781.832 584.340167,780.518 584.2915,779.058 C584.242833,777.598 584.2185,776.405667 584.2185,775.481 L584.2185,748.836 L579.2545,748.836 L579.2545,766.356 C579.2545,768.643333 578.9625,770.6265 578.3785,772.3055 C577.7945,773.9845 577.015833,775.3715 576.0425,776.4665 C575.069167,777.5615 573.962,778.376667 572.721,778.912 C571.48,779.447333 570.2025,779.715 568.8885,779.715 C567.087833,779.715 565.591333,779.423 564.399,778.839 C563.206667,778.255 562.257667,777.439833 561.552,776.3935 C560.846333,775.347167 560.3475,774.094 560.0555,772.634 C559.7635,771.174 559.6175,769.543667 559.6175,767.743 L559.6175,767.743 L559.6175,748.836 L554.6535,748.836 L554.6535,769.787 C554.6535,774.021 555.736333,777.427667 557.902,780.007 C560.067667,782.586333 563.316167,783.876 567.6475,783.876 Z M602.3225,783 L602.3225,765.48 C602.3225,763.192667 602.602333,761.233833 603.162,759.6035 C603.721667,757.973167 604.451667,756.634833 605.352,755.5885 C606.252333,754.542167 607.310833,753.775667 608.5275,753.289 C609.744167,752.802333 611.0095,752.559 612.3235,752.559 C613.004833,752.559 613.686167,752.607667 614.3675,752.705 C615.048833,752.802333 615.5355,752.899667 615.8275,752.997 L615.8275,752.997 L616.4845,748.325 C615.949167,748.179 615.426,748.081667 614.915,748.033 C614.404,747.984333 613.832167,747.96 613.1995,747.96 C610.766167,747.96 608.576167,748.5805 606.6295,749.8215 C604.682833,751.0625 603.222833,752.680667 602.2495,754.676 L602.2495,754.676 L602.1035,754.676 C602.1035,753.946 602.079167,753.021333 602.0305,751.902 C601.981833,750.782667 601.908833,749.760667 601.8115,748.836 L601.8115,748.836 L597.0665,748.836 C597.163833,750.004 597.236833,751.318 597.2855,752.778 C597.334167,754.238 597.3585,755.430333 597.3585,756.355 L597.3585,756.355 L597.3585,783 L602.3225,783 Z M628.6025,783 L628.6025,765.48 C628.6025,763.192667 628.8945,761.2095 629.4785,759.5305 C630.0625,757.8515 630.841167,756.4645 631.8145,755.3695 C632.787833,754.2745 633.895,753.459333 635.136,752.924 C636.377,752.388667 637.6545,752.121 638.9685,752.121 C640.769167,752.121 642.265667,752.413 643.458,752.997 C644.650333,753.581 645.599333,754.396167 646.305,755.4425 C647.010667,756.488833 647.5095,757.742 647.8015,759.202 C648.0935,760.662 648.2395,762.292333 648.2395,764.093 L648.2395,764.093 L648.2395,783 L653.2035,783 L653.2035,762.049 C653.2035,757.815 652.120667,754.408333 649.955,751.829 C647.789333,749.249667 644.540833,747.96 640.2095,747.96 C637.776167,747.96 635.4645,748.5805 633.2745,749.8215 C631.0845,751.0625 629.502833,752.680667 628.5295,754.676 L628.5295,754.676 L628.3835,754.676 C628.3835,753.946 628.359167,753.021333 628.3105,751.902 C628.261833,750.782667 628.188833,749.760667 628.0915,748.836 L628.0915,748.836 L623.3465,748.836 C623.443833,750.004 623.516833,751.318 623.5655,752.778 C623.614167,754.238 623.6385,755.430333 623.6385,756.355 L623.6385,756.355 L623.6385,783 L628.6025,783 Z M668.6065,739.2 C669.4825,739.2 670.2855,738.8715 671.0155,738.2145 C671.7455,737.5575 672.1105,736.718 672.1105,735.696 C672.1105,734.674 671.7455,733.8345 671.0155,733.1775 C670.2855,732.5205 669.4825,732.192 668.6065,732.192 C667.7305,732.192 666.9275,732.5205 666.1975,733.1775 C665.4675,733.8345 665.1025,734.674 665.1025,735.696 C665.1025,736.718 665.4675,737.5575 666.1975,738.2145 C666.9275,738.8715 667.7305,739.2 668.6065,739.2 Z M671.0885,783 L671.0885,748.836 L666.1245,748.836 L666.1245,783 L671.0885,783 Z M693.8645,783.438 C694.983833,783.438 696.018,783.352833 696.967,783.1825 C697.916,783.012167 698.8285,782.756667 699.7045,782.416 L699.7045,782.416 L699.4855,778.109 C698.804167,778.449667 698.086333,778.717333 697.332,778.912 C696.577667,779.106667 695.859833,779.204 695.1785,779.204 C694.4485,779.204 693.767167,779.118833 693.1345,778.9485 C692.501833,778.778167 691.954333,778.461833 691.492,777.9995 C691.029667,777.537167 690.676833,776.892333 690.4335,776.065 C690.190167,775.237667 690.0685,774.191333 690.0685,772.926 L690.0685,772.926 L690.0685,752.997 L699.7045,752.997 L699.7045,748.836 L690.0685,748.836 L690.0685,739.2 L685.1045,739.2 L685.1045,748.836 L678.0235,748.836 L678.0235,752.997 L685.1045,752.997 L685.1045,774.313 C685.1045,776.211 685.384333,777.744 685.944,778.912 C686.503667,780.08 687.2215,781.004667 688.0975,781.686 C688.9735,782.367333 689.9225,782.829667 690.9445,783.073 C691.9665,783.316333 692.939833,783.438 693.8645,783.438 Z M720.1445,783.876 C722.577833,783.876 724.8895,783.2555 727.0795,782.0145 C729.2695,780.7735 730.851167,779.155333 731.8245,777.16 L731.8245,777.16 L731.9705,777.16 C731.9705,777.89 731.994833,778.814667 732.0435,779.934 C732.092167,781.053333 732.165167,782.075333 732.2625,783 L732.2625,783 L737.0075,783 C736.910167,781.832 736.837167,780.518 736.7885,779.058 C736.739833,777.598 736.7155,776.405667 736.7155,775.481 L736.7155,748.836 L731.7515,748.836 L731.7515,766.356 C731.7515,768.643333 731.4595,770.6265 730.8755,772.3055 C730.2915,773.9845 729.512833,775.3715 728.5395,776.4665 C727.566167,777.5615 726.459,778.376667 725.218,778.912 C723.977,779.447333 722.6995,779.715 721.3855,779.715 C719.584833,779.715 718.088333,779.423 716.896,778.839 C715.703667,778.255 714.754667,777.439833 714.049,776.3935 C713.343333,775.347167 712.8445,774.094 712.5525,772.634 C712.2605,771.174 712.1145,769.543667 712.1145,767.743 L712.1145,767.743 L712.1145,748.836 L707.1505,748.836 L707.1505,769.787 C707.1505,774.021 708.233333,777.427667 710.399,780.007 C712.564667,782.586333 715.813167,783.876 720.1445,783.876 Z M754.8195,783 L754.8195,765.48 C754.8195,763.192667 755.099333,761.233833 755.659,759.6035 C756.218667,757.973167 756.948667,756.634833 757.849,755.5885 C758.749333,754.542167 759.807833,753.775667 761.0245,753.289 C762.241167,752.802333 763.5065,752.559 764.8205,752.559 C765.501833,752.559 766.183167,752.607667 766.8645,752.705 C767.545833,752.802333 768.0325,752.899667 768.3245,752.997 L768.3245,752.997 L768.9815,748.325 C768.446167,748.179 767.923,748.081667 767.412,748.033 C766.901,747.984333 766.329167,747.96 765.6965,747.96 C763.263167,747.96 761.073167,748.5805 759.1265,749.8215 C757.179833,751.0625 755.719833,752.680667 754.7465,754.676 L754.7465,754.676 L754.6005,754.676 C754.6005,753.946 754.576167,753.021333 754.5275,751.902 C754.478833,750.782667 754.405833,749.760667 754.3085,748.836 L754.3085,748.836 L749.5635,748.836 C749.660833,750.004 749.733833,751.318 749.7825,752.778 C749.831167,754.238 749.8555,755.430333 749.8555,756.355 L749.8555,756.355 L749.8555,783 L754.8195,783 Z M790.0055,783.876 C792.828167,783.876 795.468333,783.316333 797.926,782.197 C800.383667,781.077667 802.6345,779.228333 804.6785,776.649 L804.6785,776.649 L800.9555,773.729 C799.982167,775.286333 798.558667,776.661167 796.685,777.8535 C794.811333,779.045833 792.584833,779.642 790.0055,779.642 C788.2535,779.642 786.623167,779.3135 785.1145,778.6565 C783.605833,777.9995 782.291833,777.111333 781.1725,775.992 C780.053167,774.872667 779.177167,773.558667 778.5445,772.05 C777.911833,770.541333 777.571167,768.935333 777.5225,767.232 L777.5225,767.232 L805.8465,767.232 C805.895167,766.794 805.9195,766.380333 805.9195,765.991 L805.9195,765.991 L805.9195,764.896 C805.9195,762.56 805.566667,760.37 804.861,758.326 C804.155333,756.282 803.121167,754.4935 801.7585,752.9605 C800.395833,751.4275 798.6925,750.210833 796.6485,749.3105 C794.6045,748.410167 792.244167,747.96 789.5675,747.96 C787.134167,747.96 784.871167,748.410167 782.7785,749.3105 C780.685833,750.210833 778.860833,751.464 777.3035,753.07 C775.746167,754.676 774.5295,756.574 773.6535,758.764 C772.7775,760.954 772.3395,763.338667 772.3395,765.918 C772.3395,768.497333 772.789667,770.882 773.69,773.072 C774.590333,775.262 775.819167,777.16 777.3765,778.766 C778.933833,780.372 780.795333,781.625167 782.961,782.5255 C785.126667,783.425833 787.474833,783.876 790.0055,783.876 Z M800.8825,763.29 L777.5955,763.29 C777.692833,761.83 778.057833,760.430833 778.6905,759.0925 C779.323167,757.754167 780.174833,756.561833 781.2455,755.5155 C782.316167,754.469167 783.557167,753.641833 784.9685,753.0335 C786.379833,752.425167 787.912833,752.121 789.5675,752.121 C793.120167,752.121 795.857667,753.1795 797.78,755.2965 C799.702333,757.4135 800.7365,760.078 800.8825,763.29 L800.8825,763.29 Z" id="path-1"></path>
        <path d="M342.2235,883.876 C345.7275,883.876 348.7205,883.1825 351.2025,881.7955 C353.6845,880.4085 355.996167,878.255 358.1375,875.335 L358.1375,875.335 L365.4375,883 L372.7375,883 L361.1305,871.028 L370.6205,855.041 L364.7075,855.041 L357.5535,867.597 L345.5085,855.187 C346.9685,854.457 348.392,853.666167 349.779,852.8145 C351.166,851.962833 352.407,850.9895 353.502,849.8945 C354.597,848.7995 355.473,847.570667 356.13,846.208 C356.787,844.845333 357.1155,843.312333 357.1155,841.609 C357.1155,839.759667 356.787,838.117167 356.13,836.6815 C355.473,835.245833 354.572667,834.029167 353.429,833.0315 C352.285333,832.033833 350.959167,831.2795 349.4505,830.7685 C347.941833,830.2575 346.335833,830.002 344.6325,830.002 C342.8805,830.002 341.225833,830.269667 339.6685,830.805 C338.111167,831.340333 336.7485,832.131167 335.5805,833.1775 C334.4125,834.223833 333.487833,835.501333 332.8065,837.01 C332.125167,838.518667 331.7845,840.246333 331.7845,842.193 C331.7845,843.361 331.967,844.504667 332.332,845.624 C332.697,846.743333 333.1715,847.801833 333.7555,848.7995 C334.3395,849.797167 335.008667,850.758333 335.763,851.683 C336.517333,852.607667 337.283833,853.459333 338.0625,854.238 C336.359167,854.968 334.7775,855.819667 333.3175,856.793 C331.8575,857.766333 330.592167,858.8735 329.5215,860.1145 C328.450833,861.3555 327.611333,862.754667 327.003,864.312 C326.394667,865.869333 326.0905,867.621333 326.0905,869.568 C326.0905,871.904 326.516333,873.960167 327.368,875.7365 C328.219667,877.512833 329.3755,878.997167 330.8355,880.1895 C332.2955,881.381833 334.011,882.294333 335.982,882.927 C337.953,883.559667 340.0335,883.876 342.2235,883.876 Z M342.5155,852.048 C342.028833,851.658667 341.457,851.099 340.8,850.369 C340.143,849.639 339.5225,848.836 338.9385,847.96 C338.3545,847.084 337.867833,846.147167 337.4785,845.1495 C337.089167,844.151833 336.8945,843.190667 336.8945,842.266 C336.8945,839.832667 337.6245,837.898167 339.0845,836.4625 C340.5445,835.026833 342.418167,834.309 344.7055,834.309 C346.798167,834.309 348.538,834.990333 349.925,836.353 C351.312,837.715667 352.0055,839.467667 352.0055,841.609 C352.0055,842.923 351.725667,844.115333 351.166,845.186 C350.606333,846.256667 349.876333,847.205667 348.976,848.033 C348.075667,848.860333 347.065833,849.6025 345.9465,850.2595 C344.827167,850.9165 343.6835,851.512667 342.5155,852.048 Z M342.2965,879.496 C340.8365,879.496 339.4495,879.252667 338.1355,878.766 C336.8215,878.279333 335.665667,877.610167 334.668,876.7585 C333.670333,875.906833 332.891667,874.872667 332.332,873.656 C331.772333,872.439333 331.4925,871.101 331.4925,869.641 C331.4925,866.867 332.2955,864.518833 333.9015,862.5965 C335.5075,860.674167 337.867833,859.007333 340.9825,857.596 L340.9825,857.596 L354.6335,871.904 C352.978833,874.434667 351.214667,876.332667 349.341,877.598 C347.467333,878.863333 345.119167,879.496 342.2965,879.496 Z M414.4935,883.876 C417.462167,883.876 420.005,883.340667 422.122,882.27 C424.239,881.199333 426.0275,879.763667 427.4875,877.963 L427.4875,877.963 L423.7645,875.189 C422.791167,876.503 421.550167,877.573667 420.0415,878.401 C418.532833,879.228333 416.6835,879.642 414.4935,879.642 C412.498167,879.642 410.6975,879.289167 409.0915,878.5835 C407.4855,877.877833 406.122833,876.9045 405.0035,875.6635 C403.884167,874.4225 403.020333,872.974667 402.412,871.32 C401.803667,869.665333 401.4995,867.864667 401.4995,865.918 C401.4995,863.971333 401.803667,862.1585 402.412,860.4795 C403.020333,858.8005 403.896333,857.3405 405.04,856.0995 C406.183667,854.8585 407.5585,853.885167 409.1645,853.1795 C410.7705,852.473833 412.571167,852.121 414.5665,852.121 C416.415833,852.121 418.131333,852.546833 419.713,853.3985 C421.294667,854.250167 422.499167,855.333 423.3265,856.647 L423.3265,856.647 L427.1955,853.873 C425.7355,851.926333 423.825333,850.454167 421.465,849.4565 C419.104667,848.458833 416.780833,847.96 414.4935,847.96 C411.7195,847.96 409.213167,848.410167 406.9745,849.3105 C404.735833,850.210833 402.825667,851.464 401.244,853.07 C399.662333,854.676 398.4335,856.574 397.5575,858.764 C396.6815,860.954 396.2435,863.338667 396.2435,865.918 C396.2435,868.497333 396.6815,870.882 397.5575,873.072 C398.4335,875.262 399.662333,877.16 401.244,878.766 C402.825667,880.372 404.735833,881.625167 406.9745,882.5255 C409.213167,883.425833 411.7195,883.876 414.4935,883.876 Z M444.4965,883.876 C447.2705,883.876 449.643,883.377167 451.614,882.3795 C453.585,881.381833 455.349167,879.739333 456.9065,877.452 L456.9065,877.452 L457.0525,877.452 C457.0525,878.376667 457.101167,879.325667 457.1985,880.299 C457.295833,881.272333 457.4175,882.172667 457.5635,883 L457.5635,883 L462.0165,883 C461.821833,882.026667 461.675833,880.834333 461.5785,879.423 C461.481167,878.011667 461.4325,876.649 461.4325,875.335 L461.4325,875.335 L461.4325,860.37 C461.4325,858.277333 461.091833,856.452333 460.4105,854.895 C459.729167,853.337667 458.780167,852.048 457.5635,851.026 C456.346833,850.004 454.9355,849.2375 453.3295,848.7265 C451.7235,848.2155 449.995833,847.96 448.1465,847.96 C445.2265,847.96 442.610667,848.422333 440.299,849.347 C437.987333,850.271667 436.125833,851.439667 434.7145,852.851 L434.7145,852.851 L437.4885,856.136 C438.705167,854.919333 440.1895,853.946 441.9415,853.216 C443.6935,852.486 445.5915,852.121 447.6355,852.121 C450.604167,852.121 452.867167,852.851 454.4245,854.311 C455.981833,855.771 456.7605,857.985333 456.7605,860.954 L456.7605,860.954 L456.7605,862.049 C453.645833,862.049 450.640667,862.1585 447.745,862.3775 C444.849333,862.5965 442.282167,863.083167 440.0435,863.8375 C437.804833,864.591833 436.016333,865.7355 434.678,867.2685 C433.339667,868.8015 432.6705,870.882 432.6705,873.51 C432.6705,875.408 433.047667,877.014 433.802,878.328 C434.556333,879.642 435.505333,880.712667 436.649,881.54 C437.792667,882.367333 439.058,882.9635 440.445,883.3285 C441.832,883.6935 443.1825,883.876 444.4965,883.876 Z M445.8105,879.788 C444.837167,879.788 443.876,879.6785 442.927,879.4595 C441.978,879.2405 441.114167,878.8755 440.3355,878.3645 C439.556833,877.8535 438.936333,877.184333 438.474,876.357 C438.011667,875.529667 437.7805,874.507667 437.7805,873.291 C437.7805,871.685 438.315833,870.395333 439.3865,869.422 C440.457167,868.448667 441.832,867.7065 443.511,867.1955 C445.19,866.6845 447.063667,866.343833 449.132,866.1735 C451.200333,866.003167 453.2565,865.918 455.3005,865.918 L455.3005,865.918 L456.7605,865.918 L456.7605,868.473 C456.7605,869.981667 456.517167,871.417333 456.0305,872.78 C455.543833,874.142667 454.838167,875.347167 453.9135,876.3935 C452.988833,877.439833 451.845167,878.267167 450.4825,878.8755 C449.119833,879.483833 447.5625,879.788 445.8105,879.788 Z M479.1715,883 L479.1715,865.48 C479.1715,863.192667 479.451333,861.233833 480.011,859.6035 C480.570667,857.973167 481.300667,856.634833 482.201,855.5885 C483.101333,854.542167 484.159833,853.775667 485.3765,853.289 C486.593167,852.802333 487.8585,852.559 489.1725,852.559 C489.853833,852.559 490.535167,852.607667 491.2165,852.705 C491.897833,852.802333 492.3845,852.899667 492.6765,852.997 L492.6765,852.997 L493.3335,848.325 C492.798167,848.179 492.275,848.081667 491.764,848.033 C491.253,847.984333 490.681167,847.96 490.0485,847.96 C487.615167,847.96 485.425167,848.5805 483.4785,849.8215 C481.531833,851.0625 480.071833,852.680667 479.0985,854.676 L479.0985,854.676 L478.9525,854.676 C478.9525,853.946 478.928167,853.021333 478.8795,851.902 C478.830833,850.782667 478.757833,849.760667 478.6605,848.836 L478.6605,848.836 L473.9155,848.836 C474.012833,850.004 474.085833,851.318 474.1345,852.778 C474.183167,854.238 474.2075,855.430333 474.2075,856.355 L474.2075,856.355 L474.2075,883 L479.1715,883 Z M505.4515,900.52 L505.4515,877.233 L505.6705,877.233 C507.081833,879.374333 508.967667,881.016833 511.328,882.1605 C513.688333,883.304167 516.085167,883.876 518.5185,883.876 C521.195167,883.876 523.616333,883.413667 525.782,882.489 C527.947667,881.564333 529.797,880.299 531.33,878.693 C532.863,877.087 534.055333,875.189 534.907,872.999 C535.758667,870.809 536.1845,868.448667 536.1845,865.918 C536.1845,863.387333 535.758667,861.027 534.907,858.837 C534.055333,856.647 532.863,854.749 531.33,853.143 C529.797,851.537 527.947667,850.271667 525.782,849.347 C523.616333,848.422333 521.195167,847.96 518.5185,847.96 C516.085167,847.96 513.688333,848.531833 511.328,849.6755 C508.967667,850.819167 507.081833,852.510333 505.6705,854.749 L505.6705,854.749 L505.4515,854.749 L505.4515,848.836 L500.4875,848.836 L500.4875,900.52 L505.4515,900.52 Z M518.0075,879.642 C516.1095,879.642 514.3575,879.289167 512.7515,878.5835 C511.1455,877.877833 509.7585,876.916667 508.5905,875.7 C507.4225,874.483333 506.51,873.0355 505.853,871.3565 C505.196,869.6775 504.8675,867.864667 504.8675,865.918 C504.8675,863.971333 505.196,862.1585 505.853,860.4795 C506.51,858.8005 507.4225,857.3405 508.5905,856.0995 C509.7585,854.8585 511.1455,853.885167 512.7515,853.1795 C514.3575,852.473833 516.1095,852.121 518.0075,852.121 C520.0515,852.121 521.8765,852.486 523.4825,853.216 C525.0885,853.946 526.439,854.9315 527.534,856.1725 C528.629,857.4135 529.4685,858.8735 530.0525,860.5525 C530.6365,862.2315 530.9285,864.02 530.9285,865.918 C530.9285,867.816 530.6365,869.6045 530.0525,871.2835 C529.4685,872.9625 528.629,874.4225 527.534,875.6635 C526.439,876.9045 525.0885,877.877833 523.4825,878.5835 C521.8765,879.289167 520.0515,879.642 518.0075,879.642 Z M562.0265,883.876 C564.849167,883.876 567.489333,883.316333 569.947,882.197 C572.404667,881.077667 574.6555,879.228333 576.6995,876.649 L576.6995,876.649 L572.9765,873.729 C572.003167,875.286333 570.579667,876.661167 568.706,877.8535 C566.832333,879.045833 564.605833,879.642 562.0265,879.642 C560.2745,879.642 558.644167,879.3135 557.1355,878.6565 C555.626833,877.9995 554.312833,877.111333 553.1935,875.992 C552.074167,874.872667 551.198167,873.558667 550.5655,872.05 C549.932833,870.541333 549.592167,868.935333 549.5435,867.232 L549.5435,867.232 L577.8675,867.232 C577.916167,866.794 577.9405,866.380333 577.9405,865.991 L577.9405,865.991 L577.9405,864.896 C577.9405,862.56 577.587667,860.37 576.882,858.326 C576.176333,856.282 575.142167,854.4935 573.7795,852.9605 C572.416833,851.4275 570.7135,850.210833 568.6695,849.3105 C566.6255,848.410167 564.265167,847.96 561.5885,847.96 C559.155167,847.96 556.892167,848.410167 554.7995,849.3105 C552.706833,850.210833 550.881833,851.464 549.3245,853.07 C547.767167,854.676 546.5505,856.574 545.6745,858.764 C544.7985,860.954 544.3605,863.338667 544.3605,865.918 C544.3605,868.497333 544.810667,870.882 545.711,873.072 C546.611333,875.262 547.840167,877.16 549.3975,878.766 C550.954833,880.372 552.816333,881.625167 554.982,882.5255 C557.147667,883.425833 559.495833,883.876 562.0265,883.876 Z M572.9035,863.29 L549.6165,863.29 C549.713833,861.83 550.078833,860.430833 550.7115,859.0925 C551.344167,857.754167 552.195833,856.561833 553.2665,855.5155 C554.337167,854.469167 555.578167,853.641833 556.9895,853.0335 C558.400833,852.425167 559.933833,852.121 561.5885,852.121 C565.141167,852.121 567.878667,853.1795 569.801,855.2965 C571.723333,857.4135 572.7575,860.078 572.9035,863.29 L572.9035,863.29 Z M593.5625,883 L593.5625,865.48 C593.5625,863.192667 593.8545,861.2095 594.4385,859.5305 C595.0225,857.8515 595.801167,856.4645 596.7745,855.3695 C597.747833,854.2745 598.855,853.459333 600.096,852.924 C601.337,852.388667 602.6145,852.121 603.9285,852.121 C605.729167,852.121 607.225667,852.413 608.418,852.997 C609.610333,853.581 610.559333,854.396167 611.265,855.4425 C611.970667,856.488833 612.4695,857.742 612.7615,859.202 C613.0535,860.662 613.1995,862.292333 613.1995,864.093 L613.1995,864.093 L613.1995,883 L618.1635,883 L618.1635,862.049 C618.1635,857.815 617.080667,854.408333 614.915,851.829 C612.749333,849.249667 609.500833,847.96 605.1695,847.96 C602.736167,847.96 600.4245,848.5805 598.2345,849.8215 C596.0445,851.0625 594.462833,852.680667 593.4895,854.676 L593.4895,854.676 L593.3435,854.676 C593.3435,853.946 593.319167,853.021333 593.2705,851.902 C593.221833,850.782667 593.148833,849.760667 593.0515,848.836 L593.0515,848.836 L588.3065,848.836 C588.403833,850.004 588.476833,851.318 588.5255,852.778 C588.574167,854.238 588.5985,855.430333 588.5985,856.355 L588.5985,856.355 L588.5985,883 L593.5625,883 Z M640.5745,883.438 C641.693833,883.438 642.728,883.352833 643.677,883.1825 C644.626,883.012167 645.5385,882.756667 646.4145,882.416 L646.4145,882.416 L646.1955,878.109 C645.514167,878.449667 644.796333,878.717333 644.042,878.912 C643.287667,879.106667 642.569833,879.204 641.8885,879.204 C641.1585,879.204 640.477167,879.118833 639.8445,878.9485 C639.211833,878.778167 638.664333,878.461833 638.202,877.9995 C637.739667,877.537167 637.386833,876.892333 637.1435,876.065 C636.900167,875.237667 636.7785,874.191333 636.7785,872.926 L636.7785,872.926 L636.7785,852.997 L646.4145,852.997 L646.4145,848.836 L636.7785,848.836 L636.7785,839.2 L631.8145,839.2 L631.8145,848.836 L624.7335,848.836 L624.7335,852.997 L631.8145,852.997 L631.8145,874.313 C631.8145,876.211 632.094333,877.744 632.654,878.912 C633.213667,880.08 633.9315,881.004667 634.8075,881.686 C635.6835,882.367333 636.6325,882.829667 637.6545,883.073 C638.6765,883.316333 639.649833,883.438 640.5745,883.438 Z M659.1165,883 L659.1165,865.48 C659.1165,863.192667 659.396333,861.233833 659.956,859.6035 C660.515667,857.973167 661.245667,856.634833 662.146,855.5885 C663.046333,854.542167 664.104833,853.775667 665.3215,853.289 C666.538167,852.802333 667.8035,852.559 669.1175,852.559 C669.798833,852.559 670.480167,852.607667 671.1615,852.705 C671.842833,852.802333 672.3295,852.899667 672.6215,852.997 L672.6215,852.997 L673.2785,848.325 C672.743167,848.179 672.22,848.081667 671.709,848.033 C671.198,847.984333 670.626167,847.96 669.9935,847.96 C667.560167,847.96 665.370167,848.5805 663.4235,849.8215 C661.476833,851.0625 660.016833,852.680667 659.0435,854.676 L659.0435,854.676 L658.8975,854.676 C658.8975,853.946 658.873167,853.021333 658.8245,851.902 C658.775833,850.782667 658.702833,849.760667 658.6055,848.836 L658.6055,848.836 L653.8605,848.836 C653.957833,850.004 654.030833,851.318 654.0795,852.778 C654.128167,854.238 654.1525,855.430333 654.1525,856.355 L654.1525,856.355 L654.1525,883 L659.1165,883 Z M680.5785,900.52 C683.547167,900.52 685.822333,899.729167 687.404,898.1475 C688.985667,896.565833 690.2875,894.461 691.3095,891.833 L691.3095,891.833 L708.3185,848.836 L702.9165,848.836 L692.3315,877.671 L692.1855,877.671 L680.5785,848.836 L675.0305,848.836 L689.6305,882.927 L686.8565,890.081 C686.1265,892.027667 685.274833,893.524167 684.3015,894.5705 C683.328167,895.616833 681.989833,896.14 680.2865,896.14 C679.021167,896.14 677.8045,895.945333 676.6365,895.556 L676.6365,895.556 L676.1255,900.082 C677.5855,900.374 679.069833,900.52 680.5785,900.52 Z" id="path-2"></path>
        <path d="M24.9,150 L24.9,100.35 L42.9,100.35 L72.3,150 L85.5,150 L54.45,99.45 C58.35,99.05 61.95,98.15 65.25,96.75 C68.55,95.35 71.4,93.475 73.8,91.125 C76.2,88.775 78.1,86 79.5,82.8 C80.9,79.6 81.6,76.05 81.6,72.15 C81.6,66.95 80.7,62.55 78.9,58.95 C77.1,55.35 74.575,52.425 71.325,50.175 C68.075,47.925 64.225,46.3 59.775,45.3 C55.325,44.3 50.5,43.8 45.3,43.8 L45.3,43.8 L14.1,43.8 L14.1,150 L24.9,150 Z M43.65,91.05 L24.9,91.05 L24.9,53.1 L44.1,53.1 C48.1,53.1 51.75,53.45 55.05,54.15 C58.35,54.85 61.15,55.95 63.45,57.45 C65.75,58.95 67.55,60.9 68.85,63.3 C70.15,65.7 70.8,68.65 70.8,72.15 C70.8,78.45 68.45,83.175 63.75,86.325 C59.05,89.475 52.35,91.05 43.65,91.05 L43.65,91.05 Z M130.8,152.7 C135,152.7 139.175,152.1 143.325,150.9 C147.475,149.7 151.175,147.85 154.425,145.35 C157.675,142.85 160.325,139.675 162.375,135.825 C164.425,131.975 165.45,127.4 165.45,122.1 C165.45,116.8 164.5,112.425 162.6,108.975 C160.7,105.525 158.25,102.675 155.25,100.425 C152.25,98.175 148.875,96.35 145.125,94.95 C141.375,93.55 137.65,92.25 133.95,91.05 C130.95,90.05 128.075,89.05 125.325,88.05 C122.575,87.05 120.125,85.775 117.975,84.225 C115.825,82.675 114.1,80.8 112.8,78.6 C111.5,76.4 110.85,73.6 110.85,70.2 C110.85,66.8 111.525,63.85 112.875,61.35 C114.225,58.85 116,56.775 118.2,55.125 C120.4,53.475 122.85,52.25 125.55,51.45 C128.25,50.65 130.9,50.25 133.5,50.25 C138.6,50.25 142.95,51.225 146.55,53.175 C150.15,55.125 153.1,57.7 155.4,60.9 L155.4,60.9 L163.95,54 C161.35,50.5 157.5,47.475 152.4,44.925 C147.3,42.375 141.15,41.1 133.95,41.1 C130.05,41.1 126.1,41.65 122.1,42.75 C118.1,43.85 114.45,45.6 111.15,48 C107.85,50.4 105.175,53.45 103.125,57.15 C101.075,60.85 100.05,65.25 100.05,70.35 C100.05,75.15 100.875,79.2 102.525,82.5 C104.175,85.8 106.35,88.575 109.05,90.825 C111.75,93.075 114.8,94.9 118.2,96.3 C121.6,97.7 125.05,98.95 128.55,100.05 C131.95,101.15 135.2,102.25 138.3,103.35 C141.4,104.45 144.15,105.825 146.55,107.475 C148.95,109.125 150.875,111.175 152.325,113.625 C153.775,116.075 154.5,119.15 154.5,122.85 C154.5,126.25 153.775,129.225 152.325,131.775 C150.875,134.325 149.025,136.475 146.775,138.225 C144.525,139.975 142,141.275 139.2,142.125 C136.4,142.975 133.65,143.4 130.95,143.4 C125.35,143.4 120.475,142.125 116.325,139.575 C112.175,137.025 108.95,133.85 106.65,130.05 L106.65,130.05 L97.35,136.95 C99.25,139.55 101.45,141.85 103.95,143.85 C106.45,145.85 109.15,147.5 112.05,148.8 C114.95,150.1 118,151.075 121.2,151.725 C124.4,152.375 127.6,152.7 130.8,152.7 Z" id="path-3"></path>
        <path d="M34.05,152.85 C41.25,152.85 47.125,151.6 51.675,149.1 C56.225,146.6 59.775,143.425 62.325,139.575 C64.875,135.725 66.625,131.5 67.575,126.9 C68.525,122.3 69,117.9 69,113.7 L69,113.7 L69,43.8 L43.2,43.8 L43.2,113.85 C43.2,118.55 42.525,122.35 41.175,125.25 C39.825,128.15 37.05,129.6 32.85,129.6 C30.15,129.6 27.875,128.75 26.025,127.05 C24.175,125.35 22.9,123.1 22.2,120.3 L22.2,120.3 L-0.45,127.95 C1.55,135.25 5.55,141.225 11.55,145.875 C17.55,150.525 25.05,152.85 34.05,152.85 Z M143.1,152.85 C151.4,152.85 159.1,151.5 166.2,148.8 C173.3,146.1 179.425,142.275 184.575,137.325 C189.725,132.375 193.75,126.425 196.65,119.475 C199.55,112.525 201,104.85 201,96.45 C201,87.95 199.55,80.275 196.65,73.425 C193.75,66.575 189.725,60.75 184.575,55.95 C179.425,51.15 173.3,47.45 166.2,44.85 C159.1,42.25 151.4,40.95 143.1,40.95 C134.8,40.95 127.125,42.25 120.075,44.85 C113.025,47.45 106.925,51.15 101.775,55.95 C96.625,60.75 92.6,66.575 89.7,73.425 C86.8,80.275 85.35,87.95 85.35,96.45 C85.35,104.85 86.8,112.525 89.7,119.475 C92.6,126.425 96.625,132.375 101.775,137.325 C106.925,142.275 113.025,146.1 120.075,148.8 C127.125,151.5 134.8,152.85 143.1,152.85 Z M143.1,129.45 C138.6,129.45 134.5,128.625 130.8,126.975 C127.1,125.325 123.925,123.05 121.275,120.15 C118.625,117.25 116.55,113.775 115.05,109.725 C113.55,105.675 112.8,101.25 112.8,96.45 C112.8,91.85 113.525,87.55 114.975,83.55 C116.425,79.55 118.5,76.125 121.2,73.275 C123.9,70.425 127.1,68.175 130.8,66.525 C134.5,64.875 138.6,64.05 143.1,64.05 C147.6,64.05 151.725,64.875 155.475,66.525 C159.225,68.175 162.425,70.425 165.075,73.275 C167.725,76.125 169.8,79.55 171.3,83.55 C172.8,87.55 173.55,91.85 173.55,96.45 C173.55,101.25 172.8,105.675 171.3,109.725 C169.8,113.775 167.7,117.25 165,120.15 C162.3,123.05 159.1,125.325 155.4,126.975 C151.7,128.625 147.6,129.45 143.1,129.45 Z M243.75,150 L243.75,43.8 L217.95,43.8 L217.95,150 L243.75,150 Z M290.55,150 L289.95,80.55 L290.4,80.55 L333.15,150 L362.25,150 L362.25,43.8 L337.35,43.8 L337.95,113.1 L337.5,113.1 L294.9,43.8 L265.65,43.8 L265.65,150 L290.55,150 Z M458.25,150 L458.25,128.1 L408.9,128.1 L408.9,106.05 L453,106.05 L453,85.5 L408.9,85.5 L408.9,65.55 L455.55,65.55 L455.55,43.8 L384.15,43.8 L384.15,150 L458.25,150 Z M500.4,150 L500.4,107.85 L509.1,107.85 L532.05,150 L562.05,150 L534.3,104.55 C541.2,102.45 546.6,98.95 550.5,94.05 C554.4,89.15 556.35,83.1 556.35,75.9 C556.35,69.8 555.2,64.7 552.9,60.6 C550.6,56.5 547.525,53.2 543.675,50.7 C539.825,48.2 535.475,46.425 530.625,45.375 C525.775,44.325 520.8,43.8 515.7,43.8 L515.7,43.8 L475.2,43.8 L475.2,150 L500.4,150 Z M512.4,89.25 L500.25,89.25 L500.25,64.5 L513.9,64.5 C515.8,64.5 517.775,64.65 519.825,64.95 C521.875,65.25 523.725,65.825 525.375,66.675 C527.025,67.525 528.375,68.725 529.425,70.275 C530.475,71.825 531,73.85 531,76.35 C531,79.05 530.425,81.25 529.275,82.95 C528.125,84.65 526.65,85.95 524.85,86.85 C523.05,87.75 521.05,88.375 518.85,88.725 C516.65,89.075 514.5,89.25 512.4,89.25 L512.4,89.25 Z M605.7,152.7 C610.9,152.7 615.95,152 620.85,150.6 C625.75,149.2 630.1,147.05 633.9,144.15 C637.7,141.25 640.725,137.575 642.975,133.125 C645.225,128.675 646.35,123.4 646.35,117.3 C646.35,112 645.3,107.575 643.2,104.025 C641.1,100.475 638.45,97.5 635.25,95.1 C632.05,92.7 628.5,90.775 624.6,89.325 C620.7,87.875 616.95,86.55 613.35,85.35 C610.85,84.55 608.6,83.775 606.6,83.025 C604.6,82.275 602.875,81.45 601.425,80.55 C599.975,79.65 598.875,78.6 598.125,77.4 C597.375,76.2 597,74.7 597,72.9 C597,70.8 597.475,69.075 598.425,67.725 C599.375,66.375 600.55,65.275 601.95,64.425 C603.35,63.575 604.925,63 606.675,62.7 C608.425,62.4 610.15,62.25 611.85,62.25 C615.15,62.25 618.575,63.075 622.125,64.725 C625.675,66.375 628.55,68.6 630.75,71.4 L630.75,71.4 L647.1,54.15 C642.4,49.85 636.925,46.6 630.675,44.4 C624.425,42.2 618.3,41.1 612.3,41.1 C607.3,41.1 602.35,41.725 597.45,42.975 C592.55,44.225 588.15,46.2 584.25,48.9 C580.35,51.6 577.2,55.05 574.8,59.25 C572.4,63.45 571.2,68.5 571.2,74.4 C571.2,79.2 571.975,83.275 573.525,86.625 C575.075,89.975 577.125,92.825 579.675,95.175 C582.225,97.525 585.125,99.45 588.375,100.95 C591.625,102.45 594.95,103.75 598.35,104.85 C601.85,105.95 604.975,106.975 607.725,107.925 C610.475,108.875 612.775,109.925 614.625,111.075 C616.475,112.225 617.9,113.5 618.9,114.9 C619.9,116.3 620.4,118 620.4,120 C620.4,122.1 620,123.9 619.2,125.4 C618.4,126.9 617.325,128.1 615.975,129 C614.625,129.9 613.05,130.55 611.25,130.95 C609.45,131.35 607.6,131.55 605.7,131.55 C601.5,131.55 597.275,130.475 593.025,128.325 C588.775,126.175 585.35,123.5 582.75,120.3 L582.75,120.3 L565.95,137.4 C570.65,142.3 576.55,146.075 583.65,148.725 C590.75,151.375 598.1,152.7 605.7,152.7 Z" id="path-4"></path>
    </defs>
    <g id="Page-1" stroke="none" stroke-width="1" fill="none" fill-rule="evenodd">
        <g id="logo-stack" transform="translate(10.000000, 10.000000)" fill-rule="nonzero">
            <g id="Group-15">
                <g id="Group-3">
                    <circle id="Oval" stroke="#FFFFFF" stroke-width="20" fill="#4C825F" cx="515.5" cy="515.5" r="515.5"></circle>
                    <g id="Group" transform="translate(72.000000, 638.000000)" fill="#FFFFFF">
                        <rect id="Rectangle" x="0" y="0" width="887" height="21"></rect>
                    </g>
                </g>
                <g id="noun_timber_1590166" transform="translate(358.000000, 86.000000)" fill="#FFFFFF">
                    <path d="M312.941866,142.728403 C301.039029,50.6910313 245.280882,0 155.947444,0 C81.6185156,0 0,78.1769509 0,149.378012 C0,237.708831 70.023229,306.9 159.409016,306.9 C204.998385,306.9 248.271314,287.479749 278.123288,253.611771 C305.770063,222.256158 318.130953,182.867504 312.941866,142.728403 Z M288.292066,97.0164214 L277.31188,103.267967 C258.728012,53.2556007 220.133768,27.048703 163.767064,27.048703 C136.061396,27.048703 106.916133,37.6397874 82.8814334,55.7483883 L74.243861,44.6744078 C99.03762,25.5412843 128.287581,13.0512439 155.947444,13.0512439 C222.096852,13.0512439 267.058034,41.927121 288.292066,97.0164214 Z M244.705044,125.605171 C245.320144,126.662322 246.426015,127.249628 247.55806,127.249628 C248.114267,127.249628 248.670475,127.11259 249.180877,126.818937 L252.184396,125.109224 C254.160568,132.04596 255.737579,139.478643 256.84345,147.511684 C260.285392,172.6027 252.629362,197.341333 235.288781,217.166173 C216.17488,239.013955 188.384145,251.543149 159.049117,251.543149 C139.379009,251.543149 121.46259,246.126883 106.399187,236.743038 L116.777362,226.393402 C128.745634,233.049536 142.716253,236.847448 157.94979,236.847448 C204.756271,236.847448 242.748503,194.463534 242.748503,166.801422 C242.748503,108.371004 210.606264,70.613755 160.855155,70.613755 C141.132698,70.613755 123.006883,77.4199787 108.584755,88.7223559 L99.1030561,76.5585966 C116.541791,64.1860174 137.782367,57.4254731 158.322776,57.4254731 C159.788546,57.4254731 161.247772,57.4581012 162.713542,57.5233574 C208.028079,59.4875696 236.852705,79.5995365 250.208224,118.714114 L245.9287,121.154697 C244.364776,122.048707 243.828199,124.039022 244.705044,125.605171 Z M125.545806,213.035454 C124.269801,211.762958 122.195475,211.762958 120.91947,213.035454 L115.782732,218.158067 C95.5040676,204.976311 82.6131452,182.175788 82.6131452,155.17929 C82.6131452,132.652843 92.2911525,112.384261 107.649018,98.1257772 L114.107566,106.413317 C114.748841,107.242071 115.717296,107.672762 116.685751,107.672762 C117.385918,107.672762 118.092628,107.450891 118.694641,106.987572 C120.121149,105.884742 120.37635,103.835696 119.263935,102.406585 L112.602535,93.8710717 C125.912249,83.4235509 142.650817,77.139377 160.861699,77.139377 C207.340999,77.139377 236.211431,111.496777 236.211431,166.801422 C236.211431,191.311659 200.39168,230.321826 157.956334,230.321826 C144.594271,230.321826 132.259556,227.189528 121.600006,221.590544 L125.545806,217.649069 C126.821811,216.376572 126.821811,214.314476 125.545806,213.035454 Z M103.618151,92.9705358 C86.7290793,108.442785 76.0629861,130.564644 76.0629861,155.17929 C76.0629861,184.042116 89.6082701,208.48057 111.01898,222.902194 L100.856745,233.036485 C76.030268,215.025769 60.3648526,185.340714 60.3648526,150.356855 C60.3648526,120.528237 74.1522504,96.6770891 93.9532308,80.5783798 L103.618151,92.9705358 Z M53.8277808,150.363381 C53.8277808,187.207042 70.1868194,218.503925 96.1584292,237.741459 L81.9587836,251.902058 C53.2912043,230.935235 36.0226031,197.406589 36.0226031,156.614927 C36.0226031,119.960508 55.2477453,87.6652052 82.0961996,65.367155 L89.9616254,75.4492409 C68.6752443,92.6834085 53.8277808,118.289949 53.8277808,150.363381 Z M101.602717,241.526319 C117.929038,252.019519 137.507535,258.068771 159.042574,258.068771 C190.268707,258.068771 219.858936,244.723874 240.216124,221.453506 C258.819622,200.186504 267.025316,173.607646 263.315086,146.624199 C262.084886,137.677572 260.285392,129.448762 258.021301,121.774631 L273.706347,112.834529 C276.840739,122.890512 279.32077,133.788301 280.956673,145.736715 C285.262372,177.053175 275.715237,207.912841 254.082045,232.651474 C230.256741,259.88942 195.608297,275.505233 159.042574,275.505233 C131.43506,275.505233 107.033918,268.366202 87.36381,255.706496 L101.602717,241.526319 Z M256.071304,115.379522 C241.753873,74.2354752 211.077404,53.0924601 163.001461,51.0042611 C161.444081,50.9390049 159.880157,50.8998512 158.32932,50.8998512 C136.395121,50.8998512 113.708406,58.1498171 95.0983635,71.4164065 L87.2067632,61.2951669 C110.187941,43.8913332 137.900152,33.5743249 163.767064,33.5743249 C218.170683,33.5743249 254.311071,58.0910865 271.658196,106.485099 L256.071304,115.379522 Z M268.294777,244.991425 C240.909747,276.040334 201.235806,293.84223 159.409016,293.84223 C77.358622,293.84223 13.0872309,230.380557 13.0872309,149.371486 C13.0872309,113.898205 36.6965955,75.6776377 69.1332973,48.7529215 L77.7446953,59.7942739 C49.4828201,83.1168467 29.472444,117.219747 29.472444,156.614927 C29.472444,230.458865 82.7636483,282.03738 159.055661,282.03738 C197.519033,282.03738 233.960427,265.599339 259.029018,236.938807 C281.925129,210.764538 292.021927,178.071172 287.461027,144.855756 C285.700795,132.052486 282.972107,120.34552 279.458185,109.565192 L290.549614,103.235339 C294.816051,115.738431 298.015879,129.409609 299.952789,144.398962 C304.677279,180.766253 293.422261,216.494034 268.294777,244.991425 Z M212.13747,178.501863 L213.367669,179.121797 C213.85844,179.337142 214.349212,179.454603 214.839983,179.454603 C216.044008,179.454603 217.189141,178.78899 217.764979,177.660057 C218.569844,176.041703 217.915482,174.084017 216.292665,173.274839 L214.388473,172.322099 C215.743002,167.754163 216.547866,162.996985 216.547866,158.089717 C216.547866,112.854106 186.270558,96.7488709 157.943246,96.7488709 C125.630873,96.7488709 99.3451699,121.65717 99.3451699,152.275388 C99.3451699,184.949177 126.049665,213.609709 156.48402,213.609709 C181.29741,213.609709 203.133455,198.835701 212.13747,178.501863 Z M105.901873,152.275388 C105.901873,125.252788 129.249493,103.274493 157.956334,103.274493 C190.550082,103.274493 210.010795,123.764946 210.010795,158.089717 C210.010795,161.952885 209.434956,165.724695 208.466501,169.365992 L195.019372,162.664178 C195.739169,159.805956 196.171048,156.817221 196.171048,153.737127 C196.171048,133.520751 179.674593,117.076183 159.41556,117.076183 C139.149983,117.076183 122.660072,133.520751 122.660072,153.737127 C122.660072,173.953504 139.149983,190.391546 159.41556,190.391546 C174.263023,190.391546 187.055792,181.549328 192.846891,168.883096 L206.294021,175.58491 C198.408964,193.804446 178.81738,207.097138 156.510195,207.097138 C129.543955,207.084087 105.901873,181.484072 105.901873,152.275388 Z M174.105977,159.53188 L186.970725,165.94004 C182.259321,176.465869 171.697926,183.846347 159.409016,183.846347 C142.748971,183.846347 129.197144,170.33831 129.197144,153.71755 C129.197144,137.103317 142.748971,123.582228 159.409016,123.582228 C176.069061,123.582228 189.620889,137.096791 189.620889,153.71755 C189.620889,155.76007 189.40495,157.737334 189.018876,159.655866 L177.04406,153.678397 C175.421243,152.888797 173.458159,153.528307 172.64675,155.146662 C171.848429,156.765016 172.496247,158.729228 174.105977,159.53188 Z" id="Shape"></path>
                </g>
                <g id="Bespokefurniture">
                    <use fill="#000000" xlink:href="#path-1"></use>
                    <use fill="#FFFFFF" xlink:href="#path-1"></use>
                </g>
                <g id="&amp;carpentry">
                    <use fill="#000000" xlink:href="#path-2"></use>
                    <use fill="#FFFFFF" xlink:href="#path-2"></use>
                </g>
            </g>
            <g id="Group-14" transform="translate(60.000000, 436.000000)">
                <g id="RS">
                    <use fill="#000000" xlink:href="#path-3"></use>
                    <use fill="#FFFFFF" xlink:href="#path-3"></use>
                </g>
                <g id="JOINERS" transform="translate(238.000000, 0.000000)">
                    <use fill="#000000" xlink:href="#path-4"></use>
                    <use fill="#FFFFFF" xlink:href="#path-4"></use>
                </g>
            </g>
        </g>
    </g>
</svg>