<?xml version="1.0" encoding="UTF-8"?>
<svg width="251px" height="58px" viewBox="0 0 251 58" version="1.1" xmlns="http://www.w3.org/2000/svg" xmlns:xlink="http://www.w3.org/1999/xlink">
    <title>logo</title>
    <defs>
        <path d="M4.98,30 L4.98,20.07 L8.58,20.07 L14.46,30 L17.1,30 L10.89,19.89 C11.67,19.81 12.39,19.63 13.05,19.35 C13.71,19.07 14.28,18.695 14.76,18.225 C15.24,17.755 15.62,17.2 15.9,16.56 C16.18,15.92 16.32,15.21 16.32,14.43 C16.32,13.39 16.14,12.51 15.78,11.79 C15.42,11.07 14.915,10.485 14.265,10.035 C13.615,9.585 12.845,9.26 11.955,9.06 C11.065,8.86 10.1,8.76 9.06,8.76 L9.06,8.76 L2.82,8.76 L2.82,30 L4.98,30 Z M8.73,18.21 L4.98,18.21 L4.98,10.62 L8.82,10.62 C9.62,10.62 10.35,10.69 11.01,10.83 C11.67,10.97 12.23,11.19 12.69,11.49 C13.15,11.79 13.51,12.18 13.77,12.66 C14.03,13.14 14.16,13.73 14.16,14.43 C14.16,15.69 13.69,16.635 12.75,17.265 C11.81,17.895 10.47,18.21 8.73,18.21 L8.73,18.21 Z M26.16,30.54 C27,30.54 27.835,30.42 28.665,30.18 C29.495,29.94 30.235,29.57 30.885,29.07 C31.535,28.57 32.065,27.935 32.475,27.165 C32.885,26.395 33.09,25.48 33.09,24.42 C33.09,23.36 32.9,22.485 32.52,21.795 C32.14,21.105 31.65,20.535 31.05,20.085 C30.45,19.635 29.775,19.27 29.025,18.99 C28.275,18.71 27.53,18.45 26.79,18.21 C26.19,18.01 25.615,17.81 25.065,17.61 C24.515,17.41 24.025,17.155 23.595,16.845 C23.165,16.535 22.82,16.16 22.56,15.72 C22.3,15.28 22.17,14.72 22.17,14.04 C22.17,13.36 22.305,12.77 22.575,12.27 C22.845,11.77 23.2,11.355 23.64,11.025 C24.08,10.695 24.57,10.45 25.11,10.29 C25.65,10.13 26.18,10.05 26.7,10.05 C27.72,10.05 28.59,10.245 29.31,10.635 C30.03,11.025 30.62,11.54 31.08,12.18 L31.08,12.18 L32.79,10.8 C32.27,10.1 31.5,9.495 30.48,8.985 C29.46,8.475 28.23,8.22 26.79,8.22 C26.01,8.22 25.22,8.33 24.42,8.55 C23.62,8.77 22.89,9.12 22.23,9.6 C21.57,10.08 21.035,10.69 20.625,11.43 C20.215,12.17 20.01,13.05 20.01,14.07 C20.01,15.03 20.175,15.84 20.505,16.5 C20.835,17.16 21.27,17.715 21.81,18.165 C22.35,18.615 22.96,18.98 23.64,19.26 C24.32,19.54 25.01,19.79 25.71,20.01 C26.39,20.23 27.04,20.45 27.66,20.67 C28.28,20.89 28.83,21.165 29.31,21.495 C29.79,21.825 30.175,22.235 30.465,22.725 C30.755,23.215 30.9,23.83 30.9,24.57 C30.9,25.25 30.755,25.845 30.465,26.355 C30.175,26.865 29.805,27.295 29.355,27.645 C28.905,27.995 28.4,28.255 27.84,28.425 C27.28,28.595 26.73,28.68 26.19,28.68 C25.07,28.68 24.095,28.425 23.265,27.915 C22.435,27.405 21.79,26.77 21.33,26.01 L21.33,26.01 L19.47,27.39 C19.85,27.91 20.29,28.37 20.79,28.77 C21.29,29.17 21.83,29.5 22.41,29.76 C22.99,30.02 23.6,30.215 24.24,30.345 C24.88,30.475 25.52,30.54 26.16,30.54 Z" id="path-1"></path>
        <path d="M53.81,30.57 C55.25,30.57 56.425,30.32 57.335,29.82 C58.245,29.32 58.955,28.685 59.465,27.915 C59.975,27.145 60.325,26.3 60.515,25.38 C60.705,24.46 60.8,23.58 60.8,22.74 L60.8,22.74 L60.8,8.76 L55.64,8.76 L55.64,22.77 C55.64,23.71 55.505,24.47 55.235,25.05 C54.965,25.63 54.41,25.92 53.57,25.92 C53.03,25.92 52.575,25.75 52.205,25.41 C51.835,25.07 51.58,24.62 51.44,24.06 L51.44,24.06 L46.91,25.59 C47.31,27.05 48.11,28.245 49.31,29.175 C50.51,30.105 52.01,30.57 53.81,30.57 Z M75.62,30.57 C77.28,30.57 78.82,30.3 80.24,29.76 C81.66,29.22 82.885,28.455 83.915,27.465 C84.945,26.475 85.75,25.285 86.33,23.895 C86.91,22.505 87.2,20.97 87.2,19.29 C87.2,17.59 86.91,16.055 86.33,14.685 C85.75,13.315 84.945,12.15 83.915,11.19 C82.885,10.23 81.66,9.49 80.24,8.97 C78.82,8.45 77.28,8.19 75.62,8.19 C73.96,8.19 72.425,8.45 71.015,8.97 C69.605,9.49 68.385,10.23 67.355,11.19 C66.325,12.15 65.52,13.315 64.94,14.685 C64.36,16.055 64.07,17.59 64.07,19.29 C64.07,20.97 64.36,22.505 64.94,23.895 C65.52,25.285 66.325,26.475 67.355,27.465 C68.385,28.455 69.605,29.22 71.015,29.76 C72.425,30.3 73.96,30.57 75.62,30.57 Z M75.62,25.89 C74.72,25.89 73.9,25.725 73.16,25.395 C72.42,25.065 71.785,24.61 71.255,24.03 C70.725,23.45 70.31,22.755 70.01,21.945 C69.71,21.135 69.56,20.25 69.56,19.29 C69.56,18.37 69.705,17.51 69.995,16.71 C70.285,15.91 70.7,15.225 71.24,14.655 C71.78,14.085 72.42,13.635 73.16,13.305 C73.9,12.975 74.72,12.81 75.62,12.81 C76.52,12.81 77.345,12.975 78.095,13.305 C78.845,13.635 79.485,14.085 80.015,14.655 C80.545,15.225 80.96,15.91 81.26,16.71 C81.56,17.51 81.71,18.37 81.71,19.29 C81.71,20.25 81.56,21.135 81.26,21.945 C80.96,22.755 80.54,23.45 80,24.03 C79.46,24.61 78.82,25.065 78.08,25.395 C77.34,25.725 76.52,25.89 75.62,25.89 Z M95.75,30 L95.75,8.76 L90.59,8.76 L90.59,30 L95.75,30 Z M105.11,30 L104.99,16.11 L105.08,16.11 L113.63,30 L119.45,30 L119.45,8.76 L114.47,8.76 L114.59,22.62 L114.5,22.62 L105.98,8.76 L100.13,8.76 L100.13,30 L105.11,30 Z M138.65,30 L138.65,25.62 L128.78,25.62 L128.78,21.21 L137.6,21.21 L137.6,17.1 L128.78,17.1 L128.78,13.11 L138.11,13.11 L138.11,8.76 L123.83,8.76 L123.83,30 L138.65,30 Z M147.08,30 L147.08,21.57 L148.82,21.57 L153.41,30 L159.41,30 L153.86,20.91 C155.24,20.49 156.32,19.79 157.1,18.81 C157.88,17.83 158.27,16.62 158.27,15.18 C158.27,13.96 158.04,12.94 157.58,12.12 C157.12,11.3 156.505,10.64 155.735,10.14 C154.965,9.64 154.095,9.285 153.125,9.075 C152.155,8.865 151.16,8.76 150.14,8.76 L150.14,8.76 L142.04,8.76 L142.04,30 L147.08,30 Z M149.48,17.85 L147.05,17.85 L147.05,12.9 L149.78,12.9 C150.16,12.9 150.555,12.93 150.965,12.99 C151.375,13.05 151.745,13.165 152.075,13.335 C152.405,13.505 152.675,13.745 152.885,14.055 C153.095,14.365 153.2,14.77 153.2,15.27 C153.2,15.81 153.085,16.25 152.855,16.59 C152.625,16.93 152.33,17.19 151.97,17.37 C151.61,17.55 151.21,17.675 150.77,17.745 C150.33,17.815 149.9,17.85 149.48,17.85 L149.48,17.85 Z M168.14,30.54 C169.18,30.54 170.19,30.4 171.17,30.12 C172.15,29.84 173.02,29.41 173.78,28.83 C174.54,28.25 175.145,27.515 175.595,26.625 C176.045,25.735 176.27,24.68 176.27,23.46 C176.27,22.4 176.06,21.515 175.64,20.805 C175.22,20.095 174.69,19.5 174.05,19.02 C173.41,18.54 172.7,18.155 171.92,17.865 C171.14,17.575 170.39,17.31 169.67,17.07 C169.17,16.91 168.72,16.755 168.32,16.605 C167.92,16.455 167.575,16.29 167.285,16.11 C166.995,15.93 166.775,15.72 166.625,15.48 C166.475,15.24 166.4,14.94 166.4,14.58 C166.4,14.16 166.495,13.815 166.685,13.545 C166.875,13.275 167.11,13.055 167.39,12.885 C167.67,12.715 167.985,12.6 168.335,12.54 C168.685,12.48 169.03,12.45 169.37,12.45 C170.03,12.45 170.715,12.615 171.425,12.945 C172.135,13.275 172.71,13.72 173.15,14.28 L173.15,14.28 L176.42,10.83 C175.48,9.97 174.385,9.32 173.135,8.88 C171.885,8.44 170.66,8.22 169.46,8.22 C168.46,8.22 167.47,8.345 166.49,8.595 C165.51,8.845 164.63,9.24 163.85,9.78 C163.07,10.32 162.44,11.01 161.96,11.85 C161.48,12.69 161.24,13.7 161.24,14.88 C161.24,15.84 161.395,16.655 161.705,17.325 C162.015,17.995 162.425,18.565 162.935,19.035 C163.445,19.505 164.025,19.89 164.675,20.19 C165.325,20.49 165.99,20.75 166.67,20.97 C167.37,21.19 167.995,21.395 168.545,21.585 C169.095,21.775 169.555,21.985 169.925,22.215 C170.295,22.445 170.58,22.7 170.78,22.98 C170.98,23.26 171.08,23.6 171.08,24 C171.08,24.42 171,24.78 170.84,25.08 C170.68,25.38 170.465,25.62 170.195,25.8 C169.925,25.98 169.61,26.11 169.25,26.19 C168.89,26.27 168.52,26.31 168.14,26.31 C167.3,26.31 166.455,26.095 165.605,25.665 C164.755,25.235 164.07,24.7 163.55,24.06 L163.55,24.06 L160.19,27.48 C161.13,28.46 162.31,29.215 163.73,29.745 C165.15,30.275 166.62,30.54 168.14,30.54 Z" id="path-2"></path>
    </defs>
    <g id="Page-1" stroke="none" stroke-width="1" fill="none" fill-rule="evenodd">
        <g id="logo" fill="#000000" fill-rule="nonzero">
            <g id="Group" transform="translate(72.000000, 9.000000)">
                <rect id="Rectangle" x="2.6" y="36.8" width="176" height="4.2"></rect>
                <g id="Group-2">
                    <g id="RS">
                        <use xlink:href="#path-1"></use>
                        <use xlink:href="#path-1"></use>
                    </g>
                    <g id="JOINERS">
                        <use xlink:href="#path-2"></use>
                        <use xlink:href="#path-2"></use>
                    </g>
                </g>
            </g>
            <g id="noun_timber_1590166">
                <path d="M59.1112413,26.9598095 C56.8629277,9.57497257 46.3308333,0 29.4567394,0 C15.4168307,0 0,14.7667574 0,28.2158467 C0,44.9005569 13.2266099,57.97 30.110592,57.97 C38.7219172,57.97 46.8956927,54.3017304 52.5343988,47.9044457 C57.7565675,41.9817187 60.0914022,34.5416396 59.1112413,26.9598095 Z M54.4551681,18.325324 L52.3811328,19.5061716 C48.8708467,10.0593912 41.5808228,5.10919945 30.9337788,5.10919945 C25.700486,5.10919945 20.1952696,7.10973761 15.6553819,10.5302511 L14.0238404,8.43849926 C18.707106,4.82446481 24.2320987,2.46523496 29.4567394,2.46523496 C41.9516277,2.46523496 50.4442953,7.9195673 54.4551681,18.325324 Z M46.2220638,23.7254212 C46.3382493,23.9251053 46.5471361,24.0360408 46.7609669,24.0360408 C46.8660283,24.0360408 46.9710897,24.0101559 47.0674989,23.9546881 L47.6348304,23.6317423 C48.0081073,24.9420147 48.3059872,26.345966 48.514874,27.8633181 C49.1650185,32.6027323 47.7188795,37.2755852 44.4434364,41.0202771 C40.833033,45.1470804 35.5836719,47.5137059 30.0426111,47.5137059 C26.3271462,47.5137059 22.9429337,46.4906334 20.0976243,44.7181295 L22.0579461,42.7631982 C24.3186198,44.020468 26.9575145,44.7378514 29.8349603,44.7378514 C38.6761846,44.7378514 45.852495,36.7320009 45.852495,31.5069354 C45.852495,20.4700785 39.7811831,13.3381537 30.3837515,13.3381537 C26.6583986,13.3381537 23.2346335,14.6237738 20.5104537,16.7586672 L18.7194662,14.4610683 C22.0134495,12.1240255 26.0255582,10.8470338 29.9054133,10.8470338 C30.1822809,10.8470338 30.4579125,10.8531969 30.7347802,10.8655231 C39.2941927,11.2365409 44.7388443,15.035468 47.2615535,22.4237772 L46.4531989,22.8847761 C46.157791,23.0536447 46.0564376,23.429593 46.2220638,23.7254212 Z M23.7142078,40.2400302 C23.4731847,39.9996698 23.0813675,39.9996698 22.8403444,40.2400302 L21.8700716,41.2076349 C18.0396572,38.7177476 15.6047052,34.4109821 15.6047052,29.3116436 C15.6047052,25.0566481 17.4327732,21.2281382 20.3337034,18.534869 L21.5536514,20.1002932 C21.674781,20.2568356 21.8577114,20.3381884 22.0406418,20.3381884 C22.1728956,20.3381884 22.3063853,20.2962794 22.4200988,20.2087636 C22.6895504,20.0004512 22.737755,19.6134093 22.5276322,19.3434661 L21.2693677,17.7312024 C23.7834248,15.7577818 26.9451543,14.5707712 30.3849876,14.5707712 C39.164411,14.5707712 44.6177147,21.0605022 44.6177147,31.5069354 C44.6177147,36.1366466 37.8517618,43.5052339 29.8361963,43.5052339 C27.3122512,43.5052339 24.9823605,42.9135775 22.96889,41.8559917 L23.7142078,41.1114908 C23.955231,40.8711303 23.955231,40.4816232 23.7142078,40.2400302 Z M19.5723174,17.5611012 C16.3821594,20.4836373 14.3674529,24.6622105 14.3674529,29.3116436 C14.3674529,34.7635107 16.9260066,39.3796632 20.9702518,42.1037478 L19.0507185,44.0180028 C14.3612729,40.6159785 11.4022499,35.0088016 11.4022499,28.4007393 C11.4022499,22.7664448 14.0065362,18.2612279 17.7467214,15.2203606 L19.5723174,17.5611012 Z M10.1674697,28.4019719 C10.1674697,35.3613302 13.2575103,41.2729636 18.1632588,44.90672 L15.4811036,47.5814999 C10.0661164,43.6210999 6.80426948,37.2879113 6.80426948,29.5828195 C6.80426948,22.6592071 10.4356852,16.5589832 15.5070599,12.3471293 L16.9927515,14.2515233 C12.9719906,17.506866 10.1674697,22.343657 10.1674697,28.4019719 Z M19.1916244,45.6216381 C22.2754849,47.603687 25.9736456,48.7463234 30.041375,48.7463234 C35.9396446,48.7463234 41.5289101,46.2256207 45.3741567,41.8301067 C48.8881509,37.8130064 50.4381153,32.7925554 49.737294,27.6956821 C49.504923,26.0057636 49.1650185,24.4514329 48.7373569,23.0018748 L51.7000879,21.3131888 C52.2921396,23.2126523 52.7605898,25.2711235 53.0695939,27.5280461 C53.8828926,33.4433774 52.0795448,39.2724255 47.9932751,43.9452783 C43.4929399,49.0902237 36.9482339,52.0398773 30.041375,52.0398773 C24.8266225,52.0398773 20.2175179,50.6913938 16.502053,48.3001159 L19.1916244,45.6216381 Z M48.3690241,21.7939096 C45.6646205,14.0222564 39.8701763,10.0285758 30.7891649,9.63413821 C30.494993,9.62181203 30.1995851,9.61441633 29.9066493,9.61441633 C25.7635228,9.61441633 21.4782544,10.9838543 17.9630242,13.4897657 L16.4723886,11.577976 C20.8132777,8.29058516 26.0478065,6.34181693 30.9337788,6.34181693 C41.2100179,6.34181693 48.0365357,10.9727608 51.3132148,20.113852 L48.3690241,21.7939096 Z M50.6779024,46.276158 C45.5051744,52.1409519 38.0112078,55.5035324 30.110592,55.5035324 C14.6121842,55.5035324 2.47203251,43.5163275 2.47203251,28.2146141 C2.47203251,21.5141055 6.93157915,14.2946649 13.0585117,9.20888518 L14.6851091,11.294474 C9.34675491,15.6998488 5.56701721,22.1415078 5.56701721,29.5828195 C5.56701721,43.5311189 15.6331336,53.2737274 30.0438471,53.2737274 C37.3091506,53.2737274 44.1925251,50.168764 48.9277034,44.755108 C53.2525243,39.8110793 55.1596974,33.6356657 54.298194,27.3616428 C53.9657057,24.9432473 53.4502869,22.7319315 52.7865461,20.6956475 L54.8815937,19.5000085 C55.6874763,21.8617036 56.2918882,24.4440372 56.6577491,27.2753596 C57.5501528,34.1447368 55.4242048,40.8933175 50.6779024,46.276158 Z M40.0704109,33.7170185 L40.302782,33.8341172 C40.3954832,33.8747935 40.4881844,33.8969807 40.5808856,33.8969807 C40.8083126,33.8969807 41.0246155,33.7712537 41.1333849,33.5580108 C41.2854149,33.2523217 41.1618133,32.8825365 40.8552812,32.7296919 L40.4956005,32.5497297 C40.7514559,31.6868975 40.9034859,30.7883194 40.9034859,29.861391 C40.9034859,21.3168867 35.1844387,18.2747867 29.8337243,18.2747867 C23.7302761,18.2747867 18.7651988,22.9796876 18.7651988,28.7631289 C18.7651988,34.9348446 23.8093811,40.3485005 29.5580927,40.3485005 C34.2450663,40.3485005 38.3696526,37.5578546 40.0704109,33.7170185 Z M20.003687,28.7631289 C20.003687,23.6588599 24.413793,19.5074042 29.8361963,19.5074042 C35.9927933,19.5074042 39.6687056,23.3778231 39.6687056,29.861391 C39.6687056,30.5911006 39.5599362,31.3035535 39.3770058,31.991354 L36.8369924,30.7254559 C36.9729542,30.1855694 37.0545313,29.6210306 37.0545313,29.0392352 C37.0545313,25.2205862 33.9385343,22.1143902 30.111828,22.1143902 C26.2838856,22.1143902 23.1691247,25.2205862 23.1691247,29.0392352 C23.1691247,32.8578841 26.2838856,35.9628475 30.111828,35.9628475 C32.9163489,35.9628475 35.3327606,34.2926509 36.426635,31.9001403 L38.9666484,33.1660385 C37.4772488,36.6075065 33.7766162,39.1183483 29.5630368,39.1183483 C24.4694138,39.1158831 20.003687,34.2803247 20.003687,28.7631289 Z M32.8866845,30.1337995 L35.3166924,31.3442299 C34.4267607,33.3324418 32.4318305,34.7265322 30.110592,34.7265322 C26.9636946,34.7265322 24.4039049,32.175014 24.4039049,29.0355373 C24.4039049,25.8972932 26.9636946,23.3433098 30.110592,23.3433098 C33.2574893,23.3433098 35.817279,25.8960606 35.817279,29.0355373 C35.817279,29.4213466 35.7764905,29.7948297 35.7035655,30.1572192 L33.4416558,29.0281416 C33.1351237,28.8789949 32.7643189,28.9997914 32.6110528,29.3054805 C32.4602589,29.6111697 32.5826245,29.9821875 32.8866845,30.1337995 Z" id="Shape"></path>
            </g>
        </g>
    </g>
</svg>