<?xml version="1.0" standalone="no"?>
<!DOCTYPE svg PUBLIC "-//W3C//DTD SVG 20010904//EN"
 "http://www.w3.org/TR/2001/REC-SVG-20010904/DTD/svg10.dtd">
<svg version="1.0" xmlns="http://www.w3.org/2000/svg"
 width="700.000000pt" height="700.000000pt" viewBox="0 0 700.000000 700.000000"
 preserveAspectRatio="xMidYMid meet">
<metadata>
Created by potrace 1.11, written by Peter Selinger 2001-2013
</metadata>
<g transform="translate(0.000000,700.000000) scale(0.100000,-0.100000)"
fill="#000000" stroke="none">
<path d="M3329 6836 c-2 -2 -33 -6 -69 -9 -445 -41 -971 -240 -1432 -543 -92
-61 -268 -189 -315 -230 -12 -10 -60 -50 -107 -89 -107 -88 -378 -361 -478
-482 -405 -489 -648 -983 -739 -1500 -32 -178 -33 -579 -4 -778 3 -16 7 -48
10 -70 78 -577 331 -1163 700 -1620 403 -501 944 -878 1547 -1078 145 -48 237
-76 271 -83 12 -2 63 -13 112 -24 112 -24 248 -47 340 -56 39 -3 95 -10 125
-14 59 -9 569 -6 610 3 14 3 57 8 95 12 39 3 77 8 85 10 8 2 31 6 50 9 152 23
361 74 523 127 914 303 1657 975 2020 1829 55 129 130 357 152 460 26 119 35
168 45 235 6 44 13 91 16 105 22 132 22 561 -1 690 -2 14 -9 63 -15 110 -6 47
-18 119 -26 160 -8 41 -17 91 -20 110 -34 216 -151 600 -261 859 -307 720
-818 1254 -1485 1553 -199 90 -493 187 -648 214 -14 3 -32 7 -40 9 -8 3 -33 7
-55 11 -22 3 -58 9 -80 14 -22 5 -65 12 -95 15 -30 3 -62 8 -70 10 -8 2 -51 7
-95 11 -44 3 -89 8 -100 11 -25 6 -560 15 -566 9z m546 -289 c17 -3 63 -8 104
-12 41 -4 84 -9 95 -11 10 -2 40 -6 65 -9 25 -3 57 -7 71 -10 14 -3 39 -8 55
-11 882 -159 1566 -662 1953 -1440 54 -108 135 -294 130 -299 -11 -9 -222
-125 -228 -125 -4 0 -22 37 -40 83 -43 107 -139 300 -203 407 -330 549 -815
903 -1447 1054 -123 30 -249 53 -340 61 -36 4 -76 9 -90 11 -65 13 -481 12
-587 -1 -479 -58 -908 -220 -1331 -502 -81 -54 -147 -92 -152 -87 -24 25 -170
219 -170 226 0 11 197 149 330 230 292 180 652 333 900 383 3 0 28 6 55 13
151 38 298 50 550 47 138 -2 264 -6 280 -8z m130 -441 c22 -3 64 -8 94 -12 99
-11 248 -39 351 -66 221 -57 403 -132 585 -241 358 -214 633 -523 830 -931 51
-106 125 -282 125 -297 0 -8 -313 -189 -327 -189 -4 0 -21 35 -37 78 -180 487
-530 876 -973 1079 -154 70 -401 147 -543 168 -25 4 -52 9 -60 10 -157 28
-285 39 -460 39 -314 1 -547 -40 -835 -146 -167 -61 -429 -196 -525 -270 l-25
-20 -25 29 c-14 16 -37 44 -52 63 -15 19 -41 53 -58 74 -17 22 -29 44 -27 50
8 25 248 182 417 273 233 125 613 258 825 288 23 3 52 8 65 10 14 3 59 8 100
12 41 3 77 7 79 9 5 5 431 -4 476 -10z m-2261 -439 c42 -55 76 -104 75 -110 0
-7 -21 -29 -47 -50 -70 -57 -218 -203 -293 -288 -387 -438 -619 -954 -676
-1507 -9 -91 -9 -408 1 -512 50 -546 242 -1040 556 -1435 81 -102 272 -294
371 -373 168 -134 380 -264 577 -352 189 -84 480 -174 667 -204 371 -60 713
-67 1029 -20 1025 153 1908 871 2225 1809 116 345 155 738 107 1085 -36 259
-92 514 -160 732 l-15 47 52 29 c109 60 152 85 165 95 18 14 22 6 49 -76 69
-216 146 -566 169 -767 3 -30 7 -57 9 -60 7 -11 19 -242 17 -345 -1 -145 -20
-358 -36 -414 -3 -9 -7 -34 -11 -56 -14 -94 -75 -317 -116 -425 -44 -114 -55
-139 -126 -280 -314 -633 -889 -1154 -1580 -1433 -242 -98 -576 -184 -793
-203 -30 -3 -66 -8 -80 -11 -44 -9 -482 -11 -570 -2 -204 20 -272 30 -430 65
-169 37 -337 88 -495 151 -947 375 -1640 1181 -1864 2169 -32 138 -35 157 -51
274 -6 41 -13 93 -16 115 -14 93 -12 451 2 555 68 490 330 1020 730 1478 105
120 354 364 428 420 35 26 25 34 130 -101z m2061 -71 c28 -3 68 -8 90 -11 154
-18 243 -35 385 -75 199 -56 382 -138 541 -243 80 -53 261 -207 304 -258 133
-160 204 -265 276 -409 48 -96 129 -286 129 -304 0 -3 -25 -20 -55 -38 -58
-34 -78 -67 -64 -105 16 -45 75 -56 124 -23 17 11 33 20 37 20 5 0 49 -169 64
-245 2 -11 8 -42 14 -70 5 -27 12 -72 16 -100 3 -27 8 -59 11 -70 10 -39 12
-391 3 -460 -14 -101 -16 -111 -38 -207 -135 -561 -538 -1052 -1090 -1328 -66
-33 -124 -60 -129 -60 -4 0 -21 -7 -36 -15 -93 -48 -373 -119 -562 -143 -79
-9 -456 -9 -520 1 -49 8 -139 23 -182 31 -151 30 -363 105 -523 187 -177 89
-172 68 -45 196 l108 110 101 -47 c303 -142 638 -199 971 -166 207 21 483 109
668 213 33 18 61 33 64 33 10 0 202 132 267 184 340 272 585 648 632 971 5 34
5 253 0 305 -2 19 -7 71 -11 115 -4 44 -8 87 -10 95 -2 8 -6 38 -9 65 -17 122
-78 349 -133 490 -110 284 -277 525 -488 704 -237 201 -507 320 -835 367 -159
23 -383 22 -527 -1 -18 -3 -50 -8 -70 -11 -237 -38 -538 -170 -765 -337 -15
-12 -29 -19 -31 -16 -2 2 -44 56 -93 119 -50 63 -93 120 -97 127 -8 13 82 76
208 145 264 144 536 229 840 263 33 4 61 8 63 10 5 4 347 -3 397 -9z m-1797
-268 l79 -102 -142 -141 c-149 -148 -241 -258 -323 -391 -204 -329 -305 -690
-306 -1089 0 -102 12 -303 18 -314 2 -3 7 -35 11 -70 10 -92 76 -348 120 -466
135 -363 352 -677 635 -918 58 -49 109 -93 113 -97 5 -4 -60 -75 -144 -158
l-151 -151 -61 47 c-209 163 -396 371 -539 598 -179 285 -287 579 -352 959
-29 168 -40 511 -22 670 66 567 315 1074 742 1512 111 113 221 213 235 213 4
0 43 -46 87 -102z m1779 -152 c143 -15 255 -39 386 -82 406 -134 732 -463 903
-911 40 -105 87 -267 100 -343 3 -14 9 -50 14 -80 41 -233 52 -534 24 -646
-56 -223 -176 -423 -384 -638 -314 -325 -716 -530 -1125 -573 -126 -14 -336
-6 -458 18 -28 5 -64 12 -78 14 -30 5 -148 40 -194 57 -33 12 -83 34 -158 68
l-49 21 40 38 c42 40 70 79 67 96 -4 33 -19 54 -45 65 -36 15 -59 3 -130 -71
-26 -27 -51 -49 -55 -49 -17 0 -142 97 -216 168 -236 225 -389 500 -458 827
-100 473 7 961 297 1351 59 80 189 224 201 224 4 0 38 -41 76 -91 37 -50 79
-96 92 -102 33 -15 75 2 91 36 16 33 12 43 -80 161 -56 72 -66 92 -56 102 36
34 196 132 293 179 191 92 374 143 585 161 41 4 76 7 77 8 5 4 186 -2 240 -8z
m-1526 -173 c46 -60 91 -117 101 -127 10 -11 18 -23 18 -26 0 -3 -28 -36 -62
-72 -162 -169 -268 -321 -358 -513 -62 -133 -125 -337 -145 -472 -3 -23 -8
-57 -11 -75 -9 -61 -11 -322 -3 -393 18 -145 21 -170 25 -176 2 -3 5 -19 8
-35 31 -173 130 -413 242 -586 96 -147 254 -317 389 -417 33 -25 64 -48 68
-51 7 -6 -197 -220 -210 -220 -14 0 -156 121 -244 209 -243 243 -416 533 -520
870 -16 52 -31 103 -34 115 -6 27 -23 105 -28 131 -4 19 -14 80 -22 135 -18
123 -23 365 -11 495 40 425 220 821 510 1125 45 47 197 190 202 190 0 0 39
-48 85 -107z m3819 -733 c24 -90 43 -171 66 -280 10 -52 43 -247 48 -292 3
-27 9 -69 12 -95 13 -96 6 -407 -10 -501 -2 -9 -7 -39 -10 -67 -13 -89 -63
-287 -101 -395 -83 -236 -242 -518 -411 -727 -92 -113 -280 -299 -399 -394
-174 -140 -446 -302 -635 -379 -30 -12 -68 -28 -85 -35 -133 -56 -422 -130
-600 -155 -216 -29 -576 -32 -745 -6 -14 2 -47 7 -75 11 -104 14 -123 17 -235
41 -287 63 -539 162 -797 313 -35 20 -63 38 -63 41 0 7 295 300 302 300 3 0
36 -18 72 -40 227 -138 527 -244 811 -286 28 -4 61 -9 75 -11 14 -2 124 -6
245 -8 213 -3 336 6 465 35 25 5 56 12 70 14 198 32 559 185 770 325 502 332
827 803 947 1366 25 121 27 147 27 370 1 247 -1 259 -59 556 -5 29 -52 213
-60 238 -5 17 26 38 185 125 30 16 75 42 100 56 53 32 46 41 90 -120z"/>
<path d="M3537 4764 c-1 -1 -45 -4 -97 -8 -289 -18 -586 -154 -799 -365 -232
-230 -353 -530 -345 -858 11 -493 321 -971 759 -1172 103 -48 103 -48 190 -70
255 -65 521 -43 782 63 75 31 220 108 257 137 165 128 251 217 338 349 27 41
58 94 69 117 l19 42 48 -6 c38 -4 50 -2 63 13 30 35 30 64 1 94 -15 15 -34 29
-42 32 -14 4 -15 2 16 143 4 17 8 95 9 175 8 392 -113 734 -342 965 -171 173
-418 293 -680 329 -93 13 -240 25 -246 20z m153 -149 c272 -22 507 -126 676
-300 155 -160 242 -353 290 -645 13 -78 12 -311 -1 -379 -8 -41 -17 -76 -20
-79 -3 -3 -69 25 -146 64 -133 65 -140 70 -134 94 4 14 8 81 10 150 4 102 1
139 -16 203 -95 369 -414 612 -790 601 -533 -16 -896 -544 -720 -1048 33 -93
84 -178 166 -274 31 -37 134 -116 196 -151 62 -34 177 -76 242 -87 55 -10 211
-11 265 -2 249 42 445 186 587 432 9 16 24 11 153 -53 l142 -71 -26 -52 c-88
-177 -240 -337 -431 -457 -92 -58 -274 -126 -388 -146 -22 -4 -51 -9 -65 -12
-57 -11 -227 -9 -306 4 -337 53 -646 295 -817 638 -138 278 -160 621 -56 882
62 157 127 252 259 381 153 151 347 249 585 298 11 2 54 7 95 10 41 4 76 7 77
8 3 2 98 -2 173 -9z m16 -439 c102 -22 210 -74 289 -139 149 -121 238 -315
234 -507 -3 -133 7 -129 -138 -55 -161 81 -173 84 -205 51 -28 -27 -33 -63
-13 -88 6 -9 76 -49 155 -88 78 -39 142 -75 142 -79 0 -23 -81 -135 -138 -192
-76 -74 -135 -112 -230 -146 -85 -31 -128 -38 -232 -37 -400 3 -700 374 -622
769 20 100 89 238 154 305 76 79 104 101 183 142 76 39 125 56 195 65 25 3 46
7 48 8 4 4 154 -3 178 -9z"/>
</g>
</svg>
