<?xml version="1.0" encoding="UTF-8"?>
<svg width="470px" height="513px" viewBox="0 0 470 513" version="1.1" xmlns="http://www.w3.org/2000/svg" xmlns:xlink="http://www.w3.org/1999/xlink">
    <title>Shape</title>
    <g id="Page-1" stroke="none" stroke-width="1" fill="none" fill-rule="evenodd" opacity="0.0839146205">
        <g id="Home-page" transform="translate(-554.000000, 0.000000)" fill="#FFFFFF" fill-rule="nonzero">
            <g id="timber" transform="translate(981.500000, 84.500000) rotate(140.000000) translate(-981.500000, -84.500000) translate(555.000000, -332.000000)">
                <path d="M849.592411,387.877586 C817.305825,138.36604 666.061184,0.943628976 423.743167,0.943628976 C222.125062,0.943628976 0.733863815,212.87984 0.733863815,405.904548 C0.733863815,645.367699 190.672709,832.943629 433.132724,832.943629 C556.794431,832.943629 674.172768,780.295702 755.146603,688.480265 C830.138811,603.4758 863.667872,496.693916 849.592411,387.877586 Z M782.729536,263.953282 L752.945648,280.901103 C702.536684,145.318539 597.849337,74.2721427 444.95398,74.2721427 C369.802026,74.2721427 290.745151,102.984369 225.550741,152.076438 L202.121223,122.05509 C269.37459,70.1855597 348.715459,36.3253002 423.743167,36.3253002 C603.174227,36.3253002 725.13197,114.607248 782.729536,263.953282 Z M664.499217,341.456833 C666.167682,344.322749 669.167371,345.914924 672.238057,345.914924 C673.746776,345.914924 675.255495,345.543416 676.639967,344.747329 L684.787049,340.11233 C690.147439,358.917688 694.425101,379.06755 697.42479,400.844969 C706.761098,468.866232 685.994025,535.932189 638.957492,589.676948 C587.110808,648.905866 511.728108,682.87227 432.156494,682.87227 C378.801091,682.87227 330.20259,668.188877 289.34293,642.749455 L317.493851,614.69179 C349.957934,632.736442 387.853404,643.032508 429.174555,643.032508 C556.137694,643.032508 659.192076,528.130531 659.192076,453.139079 C659.192076,294.735336 572.005868,192.376161 437.055393,192.376161 C383.557993,192.376161 334.391504,210.827703 295.271308,241.46823 L269.552087,208.492513 C316.854864,174.950688 374.47018,156.622983 430.186284,156.622983 C434.162202,156.622983 438.120371,156.711437 442.096289,156.888345 C565.012512,162.213287 643.199654,216.736442 679.42666,322.775311 L667.818398,329.391683 C663.576235,331.815328 662.120765,337.211033 664.499217,341.456833 Z M341.278362,578.478649 C337.817183,575.028936 332.190549,575.028936 328.72937,578.478649 L314.795907,592.365955 C259.789788,556.630467 224.823006,494.818687 224.823006,421.6317 C224.823006,360.562936 251.074717,305.6152 292.73311,266.960724 L310.252,289.428086 C311.991464,291.674822 314.61841,292.842417 317.245356,292.842417 C319.144567,292.842417 321.061528,292.240929 322.694494,290.984879 C326.563915,287.995128 327.25615,282.440206 324.238712,278.565913 L306.169584,255.4263 C342.272342,227.103272 387.675908,210.066997 437.073142,210.066997 C563.1488,210.066997 641.46019,303.209247 641.46019,453.139079 C641.46019,519.585857 544.298688,625.341673 429.192305,625.341673 C392.94755,625.341673 359.489488,616.850072 330.575332,601.671335 L341.278362,590.98607 C344.739541,587.536357 344.739541,581.946053 341.278362,578.478649 Z M281.799335,252.984964 C235.987527,294.929936 207.055622,354.901868 207.055622,421.6317 C207.055622,499.878266 243.797366,566.130446 301.874172,605.227193 L274.308989,632.70106 C206.966874,583.874354 164.474247,503.398743 164.474247,408.558173 C164.474247,327.693363 201.872728,263.033359 255.583124,219.390067 L281.799335,252.984964 Z M146.742362,408.575864 C146.742362,508.458322 191.116449,593.303569 261.564751,645.456153 L223.048043,683.845266 C145.286892,627.004611 98.4456048,536.109098 98.4456048,425.523684 C98.4456048,326.15426 150.594033,238.602315 223.420785,178.15273 L244.755847,205.485071 C187.016284,252.206568 146.742362,321.625407 146.742362,408.575864 Z M276.332447,655.716838 C320.617787,684.163701 373.724695,700.563106 432.138744,700.563106 C516.840002,700.563106 597.103852,664.385347 652.322967,601.299827 C702.785179,543.645394 725.043222,471.59062 714.979179,398.439015 C711.642247,374.184879 706.761098,351.876736 700.619724,331.072313 L743.165599,306.835868 C751.667674,334.097446 758.394786,363.641141 762.832195,396.033061 C774.511455,480.931381 748.614737,564.591343 689.934444,631.657301 C625.308022,705.498849 531.323705,747.833019 432.138744,747.833019 C357.253034,747.833019 291.064644,728.479245 237.709242,694.159023 L276.332447,655.716838 Z M695.330333,313.735294 C656.494131,202.194575 573.283842,144.876268 442.877273,139.2152 C438.65286,139.038292 434.410697,138.932147 430.204034,138.932147 C370.707257,138.932147 309.169272,158.586665 258.68931,194.552134 L237.28325,167.113648 C299.619969,119.932189 374.789673,91.9629783 444.95398,91.9629783 C592.524446,91.9629783 690.555681,158.427448 737.609963,289.622685 L695.330333,313.735294 Z M728.486651,665.110671 C654.204428,749.283667 546.588391,797.544267 433.132724,797.544267 C210.570049,797.544267 36.2331339,625.50089 36.2331339,405.886857 C36.2331339,309.719474 100.273817,206.10425 188.258758,133.111862 L211.617278,163.044756 C134.956604,226.271802 80.6782201,318.72411 80.6782201,425.523684 C80.6782201,625.71318 225.231248,765.541545 432.174243,765.541545 C536.506598,765.541545 635.354316,720.97833 703.353168,643.28018 C765.459141,572.322238 792.846828,483.691152 780.475332,393.644798 C775.70068,358.935379 768.299082,327.19802 758.767528,297.972759 L788.85316,280.812649 C800.425922,314.70829 809.105493,351.77059 814.359385,392.40644 C827.174622,490.997467 796.64525,587.854792 728.486651,665.110671 Z M576.159283,484.858747 L579.496214,486.539376 C580.827437,487.123174 582.158659,487.441609 583.489882,487.441609 C586.755815,487.441609 589.862001,485.637144 591.423969,482.576629 C593.607174,478.189302 591.832211,472.882051 587.430301,470.688388 L582.265157,468.105526 C585.939332,455.721941 588.122537,442.825322 588.122537,429.521813 C588.122537,306.88894 505.994975,263.227958 429.156805,263.227958 C341.509107,263.227958 270.208823,330.753878 270.208823,413.759279 C270.208823,502.337293 342.645084,580.035443 425.198637,580.035443 C492.505253,580.035443 551.735785,539.983391 576.159283,484.858747 Z M287.993958,413.759279 C287.993958,340.501528 351.324656,280.918794 429.192305,280.918794 C517.603237,280.918794 570.390651,336.468018 570.390651,429.521813 C570.390651,439.994788 568.828684,450.220091 566.201738,460.091577 L529.726238,441.923089 C531.678697,434.174503 532.850173,426.0721 532.850173,417.722026 C532.850173,362.915817 488.103343,318.334911 433.150473,318.334911 C378.179853,318.334911 333.450773,362.915817 333.450773,417.722026 C333.450773,472.528235 378.179853,517.09145 433.150473,517.09145 C473.424395,517.09145 508.124932,493.120367 523.833359,458.782455 L560.308859,476.950943 C538.920548,526.343757 485.778141,562.379989 425.269635,562.379989 C352.123389,562.344607 287.993958,492.943459 287.993958,413.759279 Z M472.998404,433.431488 L507.894186,450.803888 C495.114449,479.339206 466.466538,499.347541 433.132724,499.347541 C387.942153,499.347541 351.182658,462.727512 351.182658,417.668953 C351.182658,372.628086 387.942153,335.972674 433.132724,335.972674 C478.323294,335.972674 515.082789,372.610395 515.082789,417.668953 C515.082789,423.206185 514.497051,428.566508 513.449822,433.767614 L480.96799,417.562808 C476.566081,415.422217 471.24119,417.155919 469.040235,421.543246 C466.87478,425.930573 468.631994,431.255515 472.998404,433.431488 Z" id="Shape"></path>
            </g>
        </g>
    </g>
</svg>