<?xml version="1.0" encoding="UTF-8"?>
<svg width="44px" height="44px" viewBox="0 0 44 44" version="1.1" xmlns="http://www.w3.org/2000/svg" xmlns:xlink="http://www.w3.org/1999/xlink">
    <title>Group</title>
    <g id="Page-1" stroke="none" stroke-width="1" fill="none" fill-rule="evenodd">
        <g id="Group">
            <rect id="Rectangle" x="0" y="0" width="44" height="44"></rect>
            <g id="timber" transform="translate(1.000000, 1.000000)" fill="#4C825F" fill-rule="nonzero">
                <path d="M42.247152,19.2683345 C40.6402691,6.84328924 33.1129192,0 21.052905,0 C11.0184996,0 0,10.5538884 0,20.1660317 C0,32.0906922 9.45313595,41.4315001 21.5202173,41.4315001 C27.6747821,41.4315001 33.5166275,38.8097662 37.546644,34.2375892 C41.2789587,30.0045814 42.9476788,24.6871131 42.247152,19.2683345 Z M38.9194291,13.0972169 L37.4371039,13.9411756 C34.9282817,7.18950611 29.7180587,3.65157491 22.1085537,3.65157491 C18.3682886,3.65157491 14.433678,5.08137131 11.1889935,7.52603244 L10.0229213,6.03104507 C13.3700787,3.44807339 17.3188235,1.76191793 21.052905,1.76191793 C29.9830752,1.76191793 36.0528347,5.66016135 38.9194291,13.0972169 Z M33.035181,16.9566982 C33.1182195,17.0994135 33.2675121,17.1786998 33.4203382,17.1786998 C33.4954262,17.1786998 33.5705142,17.1601997 33.6394185,17.1205565 L34.0448936,16.8897453 C34.3116768,17.8262047 34.5245733,18.8296169 34.6738659,19.9140774 C35.138528,23.3013646 34.104964,26.6410801 31.7639855,29.3174334 C29.1836089,32.266884 25.4318597,33.9583252 21.4716309,33.9583252 C18.8161663,33.9583252 16.3974497,33.2271293 14.3638903,31.9603103 L15.7649439,30.5631094 C17.3806607,31.4616875 19.2666942,31.9744056 21.3232217,31.9744056 C27.6420967,31.9744056 32.771048,26.2525772 32.771048,22.5181921 C32.771048,14.6300855 28.4318457,9.53285696 21.715446,9.53285696 C19.0529143,9.53285696 16.6059293,10.4516972 14.658942,11.9775181 L13.3789126,10.3354106 C15.7331419,8.66511238 18.6006196,7.75243889 21.3735748,7.75243889 C21.5714538,7.75243889 21.7684493,7.75684369 21.9663282,7.76565328 C28.0837908,8.03082192 31.9751153,10.7459375 33.7781104,16.0264055 L33.2003746,16.3558841 C32.9892448,16.4765755 32.916807,16.745268 33.035181,16.9566982 Z M16.9486839,28.7597864 C16.7764232,28.5879994 16.4963892,28.5879994 16.3241285,28.7597864 L15.6306689,29.4513392 C12.8930492,27.671802 11.1527746,24.5937314 11.1527746,20.9492042 C11.1527746,17.9081338 12.4593056,15.1718753 14.5326175,13.24698 L15.4045215,14.3657978 C15.4910935,14.4776796 15.621835,14.5358229 15.7525764,14.5358229 C15.8470989,14.5358229 15.9425049,14.5058703 16.0237766,14.4433222 C16.2163552,14.2944402 16.2508073,14.0178191 16.1006313,13.824889 L15.2013422,12.6725947 C16.9981536,11.2621794 19.2578604,10.4138159 21.7163294,10.4138159 C27.991035,10.4138159 31.8885433,15.0520649 31.8885433,22.5181921 C31.8885433,25.827074 27.0528769,31.0934467 21.3241051,31.0934467 C19.5202266,31.0934467 17.8550401,30.6705864 16.4160009,29.9147236 L16.9486839,29.3826244 C17.1209446,29.2108374 17.1209446,28.9324543 16.9486839,28.7597864 Z M13.9884504,12.5510224 C11.7084257,14.6397761 10.2685032,17.626227 10.2685032,20.9492042 C10.2685032,24.8456857 12.0971165,28.144877 14.9875623,30.0917963 L13.6156606,31.4599256 C10.2640862,29.0284789 8.14925513,25.0209965 8.14925513,20.2981755 C8.14925513,16.2713121 10.0105538,13.0514071 12.6836862,10.8780813 L13.9884504,12.5510224 Z M7.26675043,20.2990565 C7.26675043,25.2729508 9.47522065,29.49803 12.981388,32.095097 L11.0644358,34.006778 C7.1943126,31.1762568 4.86305143,26.6498896 4.86305143,21.1430152 C4.86305143,16.1946687 7.45844564,11.8348027 11.082987,8.82456595 L12.1448195,10.1856476 C9.271158,12.5122602 7.26675043,15.9691432 7.26675043,20.2990565 Z M13.7163669,32.6060532 C15.9204202,34.0226352 18.5635173,34.8392842 21.4707475,34.8392842 C25.6862755,34.8392842 29.6809564,33.0377231 32.4291768,29.8962234 C34.9406491,27.0251782 36.0484178,23.4370323 35.5475367,19.794267 C35.3814598,18.5864722 35.138528,17.475583 34.8328758,16.4395752 L36.950357,15.2326615 C37.3734999,16.5902192 37.708304,18.0614207 37.929151,19.6744566 C38.5104204,23.9021786 37.2215572,28.0682336 34.3010761,31.407949 C31.0846601,35.0850717 26.4071202,37.1932065 21.4707475,37.1932065 C17.7437332,37.1932065 14.449579,36.2294374 11.7941144,34.520377 L13.7163669,32.6060532 Z M34.5696261,15.5762355 C32.636773,10.0217892 28.4954496,7.16748214 22.0051973,6.88557527 C21.794951,6.87676568 21.5838212,6.87147993 21.3744582,6.87147993 C18.4133413,6.87147993 15.3506348,7.85022534 12.8382791,9.64121491 L11.7729131,8.27484756 C14.875372,5.92533 18.6165206,4.53253387 22.1085537,4.53253387 C29.4530423,4.53253387 34.3319947,7.84229671 36.6738565,14.3754884 L34.5696261,15.5762355 Z M36.2197951,33.0738424 C32.5228159,37.2654452 27.1668339,39.6687012 21.5202173,39.6687012 C10.443414,39.6687012 1.76677618,31.1013753 1.76677618,20.1651507 C1.76677618,15.3762578 4.95404041,10.2164811 9.33299517,6.58164443 L10.4955339,8.072227 C6.68018073,11.2207743 3.97877996,15.8246659 3.97877996,21.1430152 C3.97877996,31.1119468 11.1730926,38.0750465 21.4725143,38.0750465 C26.6650695,38.0750465 31.5846578,35.8559108 34.9689175,31.9867391 C38.0598925,28.4532127 39.4229603,24.0396082 38.8072388,19.5555271 C38.5696074,17.8270856 38.2012346,16.2466452 37.7268551,14.791301 L39.224198,13.9367708 C39.800167,15.6246882 40.2321438,17.4702972 40.4936266,19.49386 C41.1314328,24.4034443 39.6120053,29.2266946 36.2197951,33.0738424 Z M28.6385585,24.0977515 L28.8046354,24.1814426 C28.8708895,24.2105143 28.9371437,24.2263715 29.0033978,24.2263715 C29.1659412,24.2263715 29.3205341,24.1365137 29.3982722,23.9841078 C29.506929,23.76563 29.4185902,23.5013423 29.1995099,23.3921034 L28.942444,23.2634834 C29.1253053,22.6468121 29.2339621,22.004593 29.2339621,21.3421119 C29.2339621,15.2353043 25.1465254,13.0610976 21.3223383,13.0610976 C16.9601679,13.0610976 13.411598,16.423718 13.411598,20.5571774 C13.411598,24.968139 17.0167048,28.8373108 21.1253428,28.8373108 C24.4751504,28.8373108 27.4230165,26.8428197 28.6385585,24.0977515 Z M14.2967528,20.5571774 C14.2967528,16.9091264 17.4486815,13.9420566 21.3241051,13.9420566 C25.7242612,13.9420566 28.3514574,16.7082677 28.3514574,21.3421119 C28.3514574,21.8636396 28.2737192,22.3728339 28.1429778,22.864409 L26.3276152,21.9596641 C26.4247879,21.5738041 26.4830915,21.1703249 26.4830915,20.7545123 C26.4830915,18.0253014 24.2560702,15.8052848 21.5211006,15.8052848 C18.7852477,15.8052848 16.5591097,18.0253014 16.5591097,20.7545123 C16.5591097,23.4837231 18.7852477,25.7028588 21.5211006,25.7028588 C23.5255082,25.7028588 25.2525319,24.5091594 26.0343304,22.799218 L27.8496929,23.7039629 C26.7852103,26.1636003 24.1403463,27.9581137 21.1288763,27.9581137 C17.488434,27.9563518 14.2967528,24.5003498 14.2967528,20.5571774 Z M23.5043069,21.5368038 L25.2410479,22.4019055 C24.6050085,23.8228923 23.1792201,24.8192569 21.5202173,24.8192569 C19.2711112,24.8192569 17.4416144,22.9956719 17.4416144,20.7518694 C17.4416144,18.5089479 19.2711112,16.6836009 21.5202173,16.6836009 C23.7693233,16.6836009 25.5988201,18.5080669 25.5988201,20.7518694 C25.5988201,21.0276095 25.5696683,21.2945401 25.5175484,21.553542 L23.9009482,20.7465836 C23.6818679,20.6399876 23.4168515,20.7263216 23.3073114,20.9447994 C23.199538,21.1632772 23.2869934,21.4284459 23.5043069,21.5368038 Z" id="Shape"></path>
            </g>
        </g>
    </g>
</svg>